<svg width="18" height="16" viewBox="0 0 18 16" fill="none" xmlns="http://www.w3.org/2000/svg">
<path d="M0.317934 7.51468L4.4655 9.06268L6.07086 14.2255C6.17358 14.5562 6.57792 14.6784 6.8463 14.459L9.15823 12.5742C9.40057 12.3768 9.74575 12.3669 9.99901 12.5508L14.1689 15.5782C14.456 15.7869 14.8627 15.6296 14.9347 15.2827L17.9894 0.589169C18.068 0.210208 17.6956 -0.105932 17.3348 0.0336279L0.313074 6.6001C-0.106987 6.7621 -0.103327 7.35682 0.317934 7.51468ZM5.81214 8.23864L13.918 3.24621C14.0637 3.15675 14.2136 3.35373 14.0885 3.46977L7.39878 9.68818C7.16364 9.90706 7.01196 10.2 6.969 10.5179L6.74112 12.2067C6.71094 12.4322 6.3942 12.4545 6.33198 12.2363L5.45556 9.15682C5.35518 8.80558 5.50146 8.4304 5.81214 8.23864Z" fill="#2C3E9A"/>
</svg>
