<svg width="21" height="13" viewBox="0 0 21 13" fill="none" xmlns="http://www.w3.org/2000/svg">
<path fill-rule="evenodd" clip-rule="evenodd" d="M21 6.5C21 6.69152 20.921 6.87519 20.7803 7.01062C20.6397 7.14604 20.4489 7.22212 20.25 7.22212L2.56168 7.22212L7.28188 11.7657C7.4227 11.9013 7.50181 12.0852 7.50181 12.277C7.50181 12.4687 7.4227 12.6526 7.28188 12.7882C7.14105 12.9238 6.95006 13 6.75091 13C6.55176 13 6.36076 12.9238 6.21994 12.7882L0.220325 7.01126C0.150486 6.94418 0.0950753 6.86449 0.0572678 6.77676C0.0194604 6.68903 -2.88276e-07 6.59498 -2.84124e-07 6.5C-2.79972e-07 6.40502 0.0194604 6.31097 0.0572679 6.22323C0.0950753 6.1355 0.150486 6.05582 0.220325 5.98874L6.21994 0.211771C6.36076 0.0761757 6.55176 -6.36071e-07 6.75091 -6.22848e-07C6.95006 -6.09624e-07 7.14106 0.0761757 7.28188 0.211771C7.4227 0.347366 7.50181 0.531272 7.50181 0.723032C7.50181 0.914793 7.4227 1.0987 7.28188 1.23429L2.56168 5.77788L20.25 5.77788C20.4489 5.77788 20.6397 5.85396 20.7803 5.98938C20.921 6.12481 21 6.30848 21 6.5Z" fill="#BDBDBD"/>
</svg>
