<svg width="70" height="32" viewBox="0 0 70 32" fill="none" xmlns="http://www.w3.org/2000/svg">
<path d="M6.98756 0.650635L7.22352 1.59446L3.84149 2.38097C3.44824 2.45962 3.13363 2.53828 2.74037 2.61693C2.34711 2.69558 2.11116 2.69558 2.03251 2.77423V2.85288L8.08869 4.97647L8.40329 6.23491L1.8752 7.80794L1.5606 6.86412L4.94262 6.0776C5.49318 5.9203 6.12239 5.84164 6.83026 5.68434L0.774079 3.56075L0.459473 2.30232L6.98756 0.650635Z" fill="white"/>
<path d="M5.8084 16.145L5.25783 15.2012L7.93199 13.7068L6.43761 11.0327L3.76345 12.527L3.21289 11.5832L9.11177 8.27985L9.66233 9.22366L7.22413 10.5607L8.71851 13.2349L11.1567 11.8978L11.7073 12.8416L5.8084 16.145Z" fill="white"/>
<path d="M14.3816 17.2461C13.9096 16.7742 13.4377 16.5383 12.8872 16.6169C12.3366 16.6956 11.7074 16.9315 11.1568 17.4821C10.5276 18.0326 10.213 18.5832 10.1344 19.1338C10.0557 19.6843 10.2917 20.1562 10.6849 20.7068C10.8422 20.9427 11.0782 21.1001 11.3141 21.2574C11.5501 21.4147 11.7861 21.572 12.022 21.7293L11.3141 22.3585C10.8422 22.1225 10.2917 21.7293 9.89841 21.2574C9.19055 20.5495 8.95459 19.763 8.95459 18.9765C9.03324 18.1899 9.50515 17.4034 10.2917 16.6169C10.7636 16.145 11.3141 15.8304 11.8647 15.6731C12.4153 15.5158 12.9658 15.5158 13.5164 15.6731C14.067 15.8304 14.5389 16.145 15.0108 16.6169C15.4827 17.0888 15.7973 17.718 16.0332 18.2686L15.0894 18.5832C15.0108 18.3472 14.9321 18.1113 14.7748 17.8753C14.6175 17.6394 14.6175 17.4034 14.3816 17.2461Z" fill="white"/>
<path d="M15.7968 25.9765L14.9316 25.3473L18.1564 20.5496L16.5047 19.4484L17.0552 18.6619L21.2238 21.4934L20.6732 22.2799L19.0215 21.1788L15.7968 25.9765Z" fill="white"/>
<path d="M26.0214 25.7406C25.7855 26.3698 25.3136 26.8417 24.763 26.999C24.2124 27.1563 23.5046 27.0777 22.7181 26.7631L22.0889 26.5271L21.145 28.8867L20.1226 28.4148L22.6394 22.1226L24.4484 22.8305C25.2349 23.1451 25.7855 23.5384 26.0214 24.0103C26.2574 24.5608 26.2574 25.1114 26.0214 25.7406ZM22.4035 25.6619L22.954 25.8979C23.5046 26.1339 23.8978 26.1339 24.2124 26.0552C24.5271 25.9766 24.763 25.7406 24.9203 25.3473C25.0776 24.9541 25.0776 24.6395 24.9203 24.4035C24.763 24.1676 24.4484 23.9316 23.9765 23.6957L23.2686 23.381L22.4035 25.6619Z" fill="white"/>
<path d="M33.6502 25.0327L30.8187 29.4372C30.5041 29.9878 30.1895 30.381 29.9535 30.617C29.7176 30.8529 29.403 31.0102 29.0884 31.0889C28.7738 31.1675 28.4591 31.1675 28.0659 31.0889C27.7513 31.0102 27.358 30.9316 27.1221 30.7743L27.2794 29.8305C27.594 29.9878 27.8299 30.0664 28.2232 30.1451C28.5378 30.2237 28.7738 30.1451 28.9311 30.0664C29.0884 29.9878 29.3243 29.7518 29.5603 29.4372L27.8299 24.1675L29.0097 24.3248L30.1108 27.9428C30.1895 28.2574 30.2681 28.4934 30.2681 28.6507H30.3468C30.3468 28.572 30.4254 28.4934 30.5041 28.2574L32.549 24.8754L33.6502 25.0327Z" fill="white"/>
<path d="M38.5272 31.4821L35.9317 26.1338C36.089 26.9203 36.1676 27.7068 36.3249 28.4933L36.7182 31.718L35.6957 31.8754L34.9092 25.19L36.4822 25.0327L38.9991 30.145L40.2575 24.5607L41.8305 24.4034L42.617 31.0888L41.5946 31.2461L41.2013 27.9428C41.1227 27.6282 41.1227 27.1562 41.044 26.6057C40.8867 25.9765 40.8867 25.6619 40.8867 25.5046L39.5496 31.3248L38.5272 31.4821Z" fill="white"/>
<path d="M49.8531 28.3361L46.3137 29.7518L43.7969 23.5384L47.3362 22.1226L47.6508 22.9878L45.134 24.0103L45.8418 25.7406L48.2014 24.7968L48.516 25.6619L46.1564 26.6058L46.9429 28.5721L49.4598 27.5496L49.8531 28.3361Z" fill="white"/>
<path d="M57.2462 23.6957L56.381 24.3249L54.6507 21.8867L52.1338 23.6957L53.8642 26.1339L52.999 26.7631L49.0664 21.2575L49.9316 20.6283L51.5046 22.9092L54.0215 21.1002L52.4484 18.8193L53.3136 18.1901L57.2462 23.6957Z" fill="white"/>
<path d="M61.4932 19.2911L60.7854 20.1563L56.3809 16.381L55.0438 17.8754L54.3359 17.2461L57.6393 13.3922L58.3472 14.0214L57.0101 15.5158L61.4932 19.2911Z" fill="white"/>
<path d="M64.3247 8.35848C65.2685 8.83039 65.8977 9.45961 66.2124 10.2461C66.527 11.0326 66.4483 11.8192 65.9764 12.763C65.5045 13.6281 64.8753 14.2574 64.0888 14.4147C63.3022 14.572 62.4371 14.4933 61.4146 13.9427C60.3921 13.4708 59.7629 12.763 59.527 12.0551C59.2124 11.2686 59.3697 10.4821 59.8416 9.53826C60.3135 8.67309 60.9427 8.12253 61.7292 7.88657C62.5157 7.65062 63.3809 7.88657 64.3247 8.35848ZM61.9652 12.9203C62.673 13.3135 63.3022 13.4708 63.8528 13.3135C64.4034 13.1562 64.7966 12.8416 65.1112 12.2911C65.4258 11.7405 65.4258 11.1899 65.1899 10.718C64.9539 10.2461 64.482 9.77421 63.6955 9.38096C62.9876 8.9877 62.3584 8.83039 61.8079 8.9877C61.2573 9.145 60.864 9.4596 60.5494 10.0102C60.2348 10.5607 60.2348 11.1113 60.4708 11.6618C60.7854 12.1338 61.2573 12.6057 61.9652 12.9203Z" fill="white"/>
<path d="M61.8076 5.13382L62.2009 3.16752C62.4368 2.2237 62.6728 1.67314 63.066 1.27988C63.3806 0.965276 63.8526 0.807972 64.4818 0.965275C64.875 1.04393 65.1896 1.20123 65.3469 1.43719C65.5042 1.67314 65.6616 1.98775 65.6616 2.38101H65.7402C65.8975 1.9091 66.2121 1.67314 66.4481 1.43719C66.7627 1.27988 67.1559 1.27988 67.5492 1.35853C68.1784 1.51584 68.5717 1.83044 68.8076 2.30235C69.0436 2.77426 69.1222 3.40348 68.9649 4.11134L68.4144 6.47089L61.8076 5.13382ZM64.7964 4.66191L65.0323 3.63943C65.111 3.16752 65.111 2.85292 65.0323 2.61696C64.9537 2.38101 64.7177 2.2237 64.4031 2.14505C64.0885 2.0664 63.8526 2.14505 63.6953 2.30235C63.538 2.45966 63.3807 2.85292 63.2234 3.32483L62.9874 4.26865L64.7964 4.66191ZM65.6616 4.81921L67.7065 5.29112L67.9425 4.11134C68.0211 3.63943 68.0211 3.32483 67.9425 3.01022C67.7851 2.77427 67.5492 2.53831 67.2346 2.45966C66.92 2.38101 66.6054 2.45966 66.3694 2.61696C66.1335 2.85292 65.9762 3.16752 65.8975 3.63943L65.6616 4.81921Z" fill="white"/>
</svg>
