<svg width="24" height="20" viewBox="0 0 24 20" fill="none" xmlns="http://www.w3.org/2000/svg">
<path d="M4.5 0.625C3.50544 0.625 2.55161 1.02009 1.84835 1.72335C1.14509 2.42661 0.75 3.38044 0.75 4.375V4.75188L12 10.81L23.25 4.75375V4.375C23.25 3.38044 22.8549 2.42661 22.1516 1.72335C21.4484 1.02009 20.4946 0.625 19.5 0.625H4.5ZM23.25 6.88188L12.4444 12.7C12.3078 12.7735 12.1551 12.812 12 12.812C11.8449 12.812 11.6922 12.7735 11.5556 12.7L0.75 6.88188V15.625C0.75 16.6196 1.14509 17.5734 1.84835 18.2766C2.55161 18.9799 3.50544 19.375 4.5 19.375H19.5C20.4946 19.375 21.4484 18.9799 22.1516 18.2766C22.8549 17.5734 23.25 16.6196 23.25 15.625V6.88188Z" fill="#2C3E9A"/>
</svg>
