<svg width="533" height="830" viewBox="0 0 533 830" fill="none" xmlns="http://www.w3.org/2000/svg">
<g opacity="0.05">
<path d="M826 416.233C826 525.767 782.488 630.815 705.035 708.268C627.583 785.721 522.534 829.233 413 829.233C303.465 829.233 198.417 785.721 120.965 708.268C43.5124 630.815 3.26438e-06 525.767 0 416.233H248.829C250.105 458.866 267.938 499.324 298.546 529.029C329.153 558.734 370.128 575.348 412.779 575.348C455.431 575.348 496.406 558.734 527.013 529.029C557.621 499.324 575.454 458.866 576.73 416.233H826Z" fill="url(#paint0_linear_339_1039)"/>
<path d="M826 412.559V416.233H576.142V413C574.866 370.367 557.033 329.909 526.425 300.204C495.818 270.499 454.843 253.885 412.192 253.885C369.54 253.885 328.565 270.499 297.958 300.204C267.35 329.909 249.518 370.367 248.241 413V416.233H0V413C-1.61636e-06 358.764 10.6824 305.059 31.4376 254.952C52.1928 204.844 82.6143 159.316 120.965 120.965C159.316 82.6143 204.844 52.193 254.952 31.4378C305.059 10.6826 358.764 0 413 0C467.236 0 520.941 10.6826 571.048 31.4378C621.156 52.193 666.684 82.6143 705.035 120.965C743.386 159.316 773.807 204.844 794.562 254.952C815.317 305.059 826 358.764 826 413V412.559Z" fill="url(#paint1_linear_339_1039)"/>
</g>
<defs>
<linearGradient id="paint0_linear_339_1039" x1="-41.447" y1="604.214" x2="556.889" y2="619.206" gradientUnits="userSpaceOnUse">
<stop stop-color="#00BF9F"/>
<stop offset="1" stop-color="#364BCC"/>
</linearGradient>
<linearGradient id="paint1_linear_339_1039" x1="990.612" y1="207.676" x2="164.612" y2="207.676" gradientUnits="userSpaceOnUse">
<stop offset="0.25" stop-color="#00BF9F"/>
<stop offset="1" stop-color="#364BCC"/>
</linearGradient>
</defs>
</svg>
