<svg width="498" height="500" viewBox="0 0 498 500" fill="none" xmlns="http://www.w3.org/2000/svg">
<path d="M497.915 251.184C497.915 317.174 471.701 380.462 425.039 427.124C378.377 473.786 315.09 500 249.1 500C183.11 500 119.823 473.786 73.1606 427.124C26.4986 380.462 0.284182 317.174 0.28418 251.184H150.193C150.962 276.869 161.706 301.244 180.146 319.139C198.586 337.035 223.271 347.044 248.967 347.044C274.663 347.044 299.348 337.035 317.788 319.139C336.228 301.244 346.971 276.869 347.741 251.184H497.915Z" fill="url(#paint0_linear_301_34)"/>
<path d="M497.915 248.97V251.184H347.386V249.236C346.617 223.551 335.874 199.176 317.434 181.281C298.994 163.385 274.309 153.376 248.613 153.376C222.917 153.376 198.231 163.385 179.792 181.281C161.352 199.176 150.608 223.551 149.839 249.236V251.184H0.28418V249.236C0.284179 216.561 6.71991 184.206 19.2241 154.018C31.7282 123.83 50.0559 96.4011 73.1606 73.2965C96.2653 50.1918 123.694 31.8642 153.882 19.36C184.07 6.85586 216.425 0.420044 249.1 0.420044C281.775 0.420044 314.13 6.85586 344.318 19.36C374.505 31.8642 401.934 50.1918 425.039 73.2965C448.144 96.4011 466.471 123.83 478.975 154.018C491.48 184.206 497.915 216.561 497.915 249.236V248.97Z" fill="url(#paint1_linear_301_34)"/>
<defs>
<linearGradient id="paint0_linear_301_34" x1="-24.6859" y1="364.435" x2="335.787" y2="373.467" gradientUnits="userSpaceOnUse">
<stop stop-color="#00BF9F"/>
<stop offset="1" stop-color="#364BCC"/>
</linearGradient>
<linearGradient id="paint1_linear_301_34" x1="597.088" y1="125.536" x2="99.4562" y2="125.536" gradientUnits="userSpaceOnUse">
<stop offset="0.25" stop-color="#00BF9F"/>
<stop offset="1" stop-color="#364BCC"/>
</linearGradient>
</defs>
</svg>
