<svg width="105" height="65" viewBox="0 0 105 65" fill="none" xmlns="http://www.w3.org/2000/svg">
<path d="M44.165 59.9543H44.6935V60.4179H44.7631C44.8556 60.2419 44.9952 60.095 45.1662 59.9935C45.3372 59.892 45.5331 59.84 45.7319 59.8431C45.9567 59.8385 46.1782 59.8968 46.3715 60.0115C46.5649 60.1262 46.7223 60.2927 46.826 60.4921H46.8862C46.9968 60.2937 47.1591 60.1291 47.3558 60.0156C47.5526 59.9021 47.7764 59.8441 48.0035 59.8477C48.1914 59.8484 48.3772 59.8879 48.5492 59.9638C48.7211 60.0397 48.8755 60.1504 49.0026 60.2888C49.1298 60.4273 49.2269 60.5905 49.2879 60.7683C49.3489 60.9461 49.3724 61.1346 49.3571 61.3219V63.3153H48.8054V61.3173C48.8169 61.1953 48.8032 61.0722 48.7652 60.9557C48.7271 60.8392 48.6655 60.7318 48.5843 60.6401C48.503 60.5484 48.4037 60.4743 48.2927 60.4226C48.1816 60.3708 48.0611 60.3424 47.9386 60.3391C47.8124 60.3389 47.6875 60.3645 47.5716 60.4142C47.4556 60.464 47.351 60.5369 47.2642 60.6284C47.1775 60.72 47.1103 60.8283 47.0668 60.9468C47.0233 61.0652 47.0045 61.1913 47.0114 61.3173V63.3153H46.4597V61.3173C46.4748 61.1954 46.4639 61.0716 46.4277 60.9542C46.3916 60.8368 46.3311 60.7284 46.2501 60.636C46.1691 60.5437 46.0695 60.4695 45.9578 60.4183C45.8462 60.3671 45.725 60.3402 45.6021 60.3391C45.4744 60.3331 45.3468 60.3548 45.2282 60.4025C45.1095 60.4503 45.0026 60.5231 44.9146 60.6159C44.8266 60.7087 44.7597 60.8194 44.7183 60.9405C44.677 61.0615 44.6622 61.19 44.675 61.3173V63.3153H44.165V59.9543Z" fill="#364BCC"/>
<path d="M49.8716 61.5815C49.8716 61.1131 50.0577 60.6638 50.3889 60.3326C50.7202 60.0014 51.1694 59.8153 51.6379 59.8153C52.1063 59.8153 52.5555 60.0014 52.8868 60.3326C53.218 60.6638 53.4041 61.1131 53.4041 61.5815C53.4085 61.6541 53.4085 61.7268 53.4041 61.7994H50.4372C50.4598 62.1125 50.6027 62.4047 50.8361 62.6148C51.0695 62.8248 51.3751 62.9363 51.6888 62.9259C51.9206 62.9316 52.1495 62.8742 52.3512 62.7599C52.5529 62.6456 52.7197 62.4786 52.8339 62.2769L53.2975 62.5087C53.1472 62.8028 52.9147 63.047 52.6284 63.2115C52.342 63.3761 52.014 63.454 51.6842 63.4358C51.4406 63.4432 51.1981 63.4 50.9721 63.3089C50.746 63.2177 50.5414 63.0807 50.371 62.9064C50.2006 62.7321 50.0683 62.5244 49.9823 62.2963C49.8964 62.0683 49.8587 61.8249 49.8716 61.5815ZM52.8246 61.3265C52.775 61.0466 52.6284 60.7931 52.4106 60.6104C52.1927 60.4277 51.9175 60.3276 51.6332 60.3276C51.3489 60.3276 51.0737 60.4277 50.8558 60.6104C50.638 60.7931 50.4914 61.0466 50.4418 61.3265H52.8246Z" fill="#364BCC"/>
<path d="M53.8124 61.6232C53.8017 61.39 53.8385 61.1571 53.9207 60.9386C54.003 60.7202 54.1288 60.5207 54.2906 60.3524C54.4523 60.1842 54.6467 60.0506 54.8617 59.9598C55.0768 59.8691 55.3081 59.823 55.5415 59.8245C55.7822 59.8139 56.0216 59.866 56.2361 59.9757C56.4507 60.0854 56.633 60.249 56.7653 60.4504H56.8349V58.4338H57.3819V63.2967H56.8349V62.7822H56.7653C56.6398 62.9894 56.4608 63.1591 56.2471 63.2733C56.0334 63.3875 55.7928 63.442 55.5508 63.4312C55.3161 63.4327 55.0836 63.3864 54.8675 63.2952C54.6513 63.2039 54.4559 63.0697 54.2933 62.9005C54.1306 62.7314 54.0041 62.5309 53.9215 62.3113C53.8388 62.0917 53.8017 61.8576 53.8124 61.6232ZM56.8441 61.6232C56.8306 61.3807 56.7462 61.1475 56.6015 60.9525C56.4567 60.7574 56.258 60.6091 56.0299 60.5258C55.8018 60.4424 55.5542 60.4278 55.3179 60.4837C55.0815 60.5396 54.8667 60.6635 54.7 60.8402C54.5334 61.0168 54.4221 61.2385 54.3801 61.4777C54.338 61.7169 54.367 61.9632 54.4635 62.1861C54.5599 62.409 54.7196 62.5987 54.9227 62.7319C55.1258 62.865 55.3635 62.9357 55.6064 62.9351C55.7754 62.9354 55.9426 62.9011 56.0978 62.8343C56.2531 62.7676 56.393 62.6697 56.5089 62.5468C56.6249 62.4239 56.7144 62.2785 56.7721 62.1197C56.8298 61.9608 56.8543 61.7919 56.8441 61.6232Z" fill="#364BCC"/>
<path d="M58.0628 58.9206C58.0621 58.8687 58.072 58.8172 58.092 58.7693C58.112 58.7213 58.1415 58.678 58.1789 58.642C58.2162 58.6059 58.2606 58.5779 58.3092 58.5596C58.3578 58.5414 58.4096 58.5333 58.4614 58.5358C58.5129 58.5332 58.5643 58.5413 58.6124 58.5597C58.6605 58.578 58.7043 58.6062 58.7409 58.6424C58.7776 58.6786 58.8062 58.722 58.8252 58.7699C58.8441 58.8178 58.8528 58.8691 58.8508 58.9206C58.8541 58.973 58.8464 59.0255 58.8281 59.0748C58.8098 59.124 58.7814 59.1689 58.7447 59.2064C58.708 59.244 58.6638 59.2735 58.615 59.2929C58.5662 59.3123 58.5139 59.3213 58.4614 59.3193C58.4086 59.3212 58.3558 59.3122 58.3066 59.2929C58.2573 59.2735 58.2126 59.2442 58.1752 59.2068C58.1378 59.1694 58.1085 59.1247 58.0891 59.0754C58.0698 59.0262 58.0608 58.9735 58.0628 58.9206ZM58.1833 59.9544H58.7349V63.2967H58.1833V59.9544Z" fill="#364BCC"/>
<path d="M59.3707 61.6232C59.3579 61.3883 59.3937 61.1534 59.476 60.933C59.5584 60.7127 59.6853 60.5117 59.849 60.3428C60.0127 60.1739 60.2096 60.0407 60.4272 59.9515C60.6449 59.8623 60.8786 59.8191 61.1138 59.8245C61.4861 59.8053 61.8534 59.9179 62.151 60.1425C62.4486 60.3672 62.6575 60.6896 62.7409 61.053L62.2032 61.1272C62.1381 60.8911 61.9961 60.6834 61.7995 60.5373C61.603 60.3912 61.3632 60.3149 61.1184 60.3206C60.7907 60.3482 60.4853 60.4979 60.2627 60.74C60.0402 60.9821 59.9167 61.299 59.9167 61.6279C59.9167 61.9567 60.0402 62.2736 60.2627 62.5157C60.4853 62.7578 60.7907 62.9075 61.1184 62.9351C61.3651 62.9384 61.606 62.8602 61.8038 62.7127C62.0015 62.5652 62.1452 62.3566 62.2124 62.1192L62.7548 62.1934C62.6603 62.5528 62.4464 62.8692 62.1481 63.0908C61.8499 63.3124 61.4851 63.4259 61.1138 63.4126C60.8796 63.4173 60.647 63.3739 60.4303 63.285C60.2137 63.1961 60.0175 63.0637 59.8541 62.896C59.6907 62.7282 59.5635 62.5287 59.4803 62.3098C59.3972 62.0908 59.3599 61.8571 59.3707 61.6232Z" fill="#364BCC"/>
<path d="M63.0469 62.453C63.0469 61.8597 63.5522 61.4239 64.5442 61.3126L65.4714 61.2014V61.0669C65.4714 60.6034 65.1469 60.3252 64.5952 60.3252C64.0436 60.3252 63.7608 60.5709 63.7701 60.9881H63.2138C63.2138 60.2789 63.7608 59.8292 64.6045 59.8292C65.4482 59.8292 65.9952 60.3206 65.9952 61.0808V63.2967H65.4482V62.8332H65.3879C65.2648 63.0271 65.0919 63.1845 64.8872 63.2888C64.6826 63.3932 64.4537 63.4408 64.2244 63.4266C63.5429 63.4034 63.0469 63.0464 63.0469 62.453ZM65.4714 61.9663V61.6557L64.5442 61.7623C63.8628 61.8458 63.6171 62.1146 63.6171 62.4252C63.6171 62.7358 63.8952 62.9352 64.3449 62.9352C64.4845 62.9512 64.6259 62.9384 64.7604 62.8977C64.8949 62.857 65.0197 62.7891 65.1269 62.6984C65.2342 62.6076 65.3218 62.4958 65.3842 62.3699C65.4466 62.244 65.4826 62.1066 65.4899 61.9663H65.4714Z" fill="#364BCC"/>
<path d="M66.7275 58.4338H67.2792V63.2967H66.7275V58.4338Z" fill="#364BCC"/>
<path d="M69.2447 61.5815C69.2679 61.1293 69.4638 60.7033 69.7921 60.3915C70.1203 60.0796 70.5558 59.9057 71.0086 59.9057C71.4614 59.9057 71.8968 60.0796 72.2251 60.3915C72.5533 60.7033 72.7493 61.1293 72.7725 61.5815C72.7725 61.6464 72.7725 61.7252 72.7725 61.7994H69.8102C69.8328 62.1125 69.9758 62.4047 70.2091 62.6147C70.4425 62.8248 70.7481 62.9363 71.0619 62.9259C71.2937 62.9321 71.5229 62.8749 71.7246 62.7606C71.9264 62.6462 72.0931 62.479 72.2069 62.2769L72.6705 62.5087C72.519 62.8028 72.2856 63.0468 71.9986 63.2113C71.7115 63.3758 71.383 63.4538 71.0526 63.4358C70.8094 63.4426 70.5674 63.3988 70.3419 63.3074C70.1164 63.216 69.9123 63.0789 69.7425 62.9047C69.5726 62.7304 69.4407 62.5229 69.355 62.2952C69.2693 62.0675 69.2318 61.8245 69.2447 61.5815ZM72.1977 61.3265C72.1566 61.0395 72.0107 60.7779 71.7881 60.5921C71.5656 60.4064 71.2821 60.3096 70.9924 60.3206C70.706 60.3114 70.4266 60.4095 70.2088 60.5956C69.991 60.7816 69.8505 61.0423 69.8149 61.3265H72.1977Z" fill="#364BCC"/>
<path d="M76.1375 60.4643H76.2024V59.9543H76.7541V64.8219H76.2024V62.8007H76.1375C76.0058 63.003 75.8236 63.1674 75.6091 63.278C75.3945 63.3885 75.1548 63.4413 74.9137 63.4312C74.4354 63.4312 73.9767 63.2412 73.6385 62.903C73.3003 62.5648 73.1104 62.1061 73.1104 61.6279C73.1104 61.1496 73.3003 60.6909 73.6385 60.3527C73.9767 60.0145 74.4354 59.8245 74.9137 59.8245C75.1557 59.8154 75.3959 59.8696 75.6106 59.9818C75.8253 60.094 76.0069 60.2603 76.1375 60.4643ZM73.7315 61.6232C73.7433 61.8658 73.826 62.0997 73.9692 62.2958C74.1125 62.4919 74.3102 62.6418 74.5377 62.7268C74.7652 62.8118 75.0127 62.8282 75.2495 62.7741C75.4862 62.7199 75.702 62.5975 75.8699 62.4221C76.0379 62.2466 76.1507 62.0258 76.1945 61.7869C76.2383 61.5479 76.2111 61.3014 76.1162 61.0778C76.0214 60.8542 75.8631 60.6633 75.6609 60.5287C75.4587 60.3941 75.2215 60.3218 74.9786 60.3206C74.8102 60.3211 74.6437 60.3555 74.4889 60.4218C74.3342 60.4882 74.1944 60.5851 74.078 60.7067C73.9616 60.8283 73.8709 60.9722 73.8114 61.1296C73.7518 61.2871 73.7247 61.455 73.7315 61.6232Z" fill="#364BCC"/>
<path d="M80.4866 63.2967H79.9395V62.8332H79.8746C79.7632 63.015 79.6062 63.1645 79.4192 63.267C79.2322 63.3694 79.0216 63.4212 78.8084 63.4173C78.6176 63.4225 78.4278 63.3874 78.2514 63.3143C78.075 63.2412 77.9161 63.1318 77.7848 62.9931C77.6536 62.8545 77.5531 62.6897 77.4898 62.5096C77.4266 62.3294 77.402 62.138 77.4177 61.9477V59.9543H77.9693V61.9477C77.9557 62.0749 77.9699 62.2036 78.0109 62.3248C78.052 62.446 78.119 62.5567 78.2073 62.6494C78.2955 62.742 78.4029 62.8144 78.5219 62.8613C78.6409 62.9083 78.7688 62.9287 78.8965 62.9212C79.0326 62.9243 79.1679 62.9002 79.2946 62.8504C79.4213 62.8006 79.5368 62.7261 79.6343 62.6311C79.7319 62.5362 79.8095 62.4227 79.8627 62.2974C79.9159 62.1721 79.9436 62.0375 79.9442 61.9014V59.9543H80.4912L80.4866 63.2967Z" fill="#364BCC"/>
<path d="M81.177 58.9206C81.1763 58.8687 81.1863 58.8172 81.2062 58.7693C81.2262 58.7213 81.2558 58.678 81.2931 58.642C81.3305 58.6059 81.3748 58.5779 81.4234 58.5596C81.472 58.5414 81.5238 58.5333 81.5757 58.5358C81.6271 58.5332 81.6785 58.5413 81.7267 58.5597C81.7748 58.578 81.8185 58.6062 81.8552 58.6424C81.8918 58.6786 81.9205 58.722 81.9394 58.7699C81.9584 58.8178 81.9671 58.8691 81.9651 58.9206C81.9684 58.973 81.9606 59.0255 81.9423 59.0748C81.9241 59.124 81.8957 59.1689 81.859 59.2064C81.8223 59.244 81.7781 59.2735 81.7293 59.2929C81.6805 59.3123 81.6282 59.3213 81.5757 59.3193C81.5228 59.3212 81.4701 59.3122 81.4209 59.2929C81.3716 59.2735 81.3269 59.2442 81.2895 59.2068C81.252 59.1694 81.2227 59.1247 81.2034 59.0754C81.1841 59.0262 81.1751 58.9735 81.177 58.9206ZM81.2975 59.9544H81.8446V63.2967H81.2975V59.9544Z" fill="#364BCC"/>
<path d="M86.2248 61.6232C86.2368 61.8564 86.2011 62.0895 86.1201 62.3085C86.039 62.5274 85.9142 62.7276 85.7533 62.8967C85.5924 63.0659 85.3987 63.2005 85.1841 63.2924C84.9695 63.3842 84.7384 63.4315 84.5049 63.4312C84.2622 63.443 84.0207 63.391 83.8043 63.2803C83.588 63.1697 83.4044 63.0044 83.2718 62.8007H83.2116V64.8219H82.6553V59.9543H83.2023V60.4643H83.2626C83.3932 60.2603 83.5748 60.094 83.7895 59.9818C84.0041 59.8696 84.2444 59.8154 84.4864 59.8245C84.7206 59.8218 84.9529 59.8669 85.1691 59.9571C85.3852 60.0472 85.5807 60.1806 85.7434 60.3491C85.9062 60.5175 86.0329 60.7174 86.1156 60.9365C86.1984 61.1556 86.2356 61.3892 86.2248 61.6232ZM83.193 61.6232C83.1827 61.7924 83.2071 61.962 83.2647 62.1214C83.3223 62.2809 83.412 62.4268 83.5282 62.5503C83.6443 62.6738 83.7845 62.7722 83.9402 62.8395C84.0958 62.9068 84.2635 62.9415 84.4331 62.9415C84.6026 62.9415 84.7704 62.9068 84.926 62.8395C85.0816 62.7722 85.2218 62.6738 85.338 62.5503C85.4542 62.4268 85.5438 62.2809 85.6015 62.1214C85.6591 61.962 85.6835 61.7924 85.6732 61.6232C85.6835 61.454 85.6591 61.2844 85.6015 61.125C85.5438 60.9656 85.4542 60.8196 85.338 60.6961C85.2218 60.5726 85.0816 60.4742 84.926 60.4069C84.7704 60.3397 84.6026 60.305 84.4331 60.305C84.2635 60.305 84.0958 60.3397 83.9402 60.4069C83.7845 60.4742 83.6443 60.5726 83.5282 60.6961C83.412 60.8196 83.3223 60.9656 83.2647 61.125C83.2071 61.2844 83.1827 61.454 83.193 61.6232Z" fill="#364BCC"/>
<path d="M86.7998 59.9543H87.3283V60.4179H87.3932C87.4869 60.2419 87.6274 60.0951 87.7991 59.9937C87.9709 59.8922 88.1672 59.8401 88.3667 59.8431C88.5914 59.8385 88.8129 59.8968 89.0063 60.0115C89.1996 60.1262 89.357 60.2927 89.4607 60.4921H89.521C89.6316 60.2937 89.7939 60.1291 89.9906 60.0156C90.1873 59.9021 90.4111 59.8441 90.6382 59.8477C90.8262 59.8484 91.0119 59.8879 91.1839 59.9638C91.3558 60.0397 91.5102 60.1504 91.6374 60.2888C91.7645 60.4273 91.8616 60.5905 91.9226 60.7683C91.9836 60.9461 92.0072 61.1346 91.9918 61.3219V63.3153H91.4402V61.3173C91.4517 61.1953 91.4379 61.0722 91.3999 60.9557C91.3618 60.8392 91.3003 60.7318 91.219 60.6401C91.1377 60.5484 91.0385 60.4743 90.9274 60.4226C90.8163 60.3708 90.6958 60.3424 90.5733 60.3391C90.4471 60.3389 90.3222 60.3645 90.2063 60.4142C90.0904 60.464 89.9858 60.5369 89.899 60.6284C89.8122 60.72 89.745 60.8283 89.7015 60.9468C89.658 61.0652 89.6392 61.1913 89.6461 61.3173V63.3153H89.0945V61.3173C89.1095 61.1954 89.0986 61.0716 89.0625 60.9542C89.0263 60.8368 88.9658 60.7284 88.8848 60.636C88.8038 60.5437 88.7043 60.4695 88.5926 60.4183C88.4809 60.3671 88.3597 60.3402 88.2369 60.3391C88.1091 60.3331 87.9816 60.3548 87.8629 60.4025C87.7443 60.4503 87.6373 60.5231 87.5493 60.6159C87.4613 60.7087 87.3944 60.8194 87.353 60.9405C87.3117 61.0615 87.2969 61.19 87.3097 61.3173V63.3153H86.7627L86.7998 59.9543Z" fill="#364BCC"/>
<path d="M92.5064 61.5815C92.5064 61.1131 92.6925 60.6638 93.0237 60.3326C93.355 60.0014 93.8042 59.8153 94.2726 59.8153C94.7411 59.8153 95.1903 60.0014 95.5215 60.3326C95.8528 60.6638 96.0389 61.1131 96.0389 61.5815C96.0433 61.6541 96.0433 61.7268 96.0389 61.7994H93.0812C93.1027 62.1129 93.2453 62.4058 93.4789 62.6161C93.7126 62.8263 94.0188 62.9374 94.3329 62.9259C94.5646 62.9316 94.7936 62.8742 94.9953 62.7599C95.1969 62.6456 95.3638 62.4786 95.4779 62.2769L95.9415 62.5087C95.7912 62.8028 95.5588 63.047 95.2724 63.2115C94.986 63.3761 94.6581 63.454 94.3283 63.4358C94.0839 63.4445 93.8404 63.4023 93.6132 63.3117C93.3861 63.2212 93.1803 63.0844 93.0089 62.9099C92.8375 62.7355 92.7044 62.5273 92.6178 62.2986C92.5313 62.0699 92.4934 61.8257 92.5064 61.5815ZM95.4594 61.3265C95.4193 61.0391 95.2737 60.7769 95.0509 60.5909C94.8281 60.405 94.5441 60.3086 94.2541 60.3206C93.9678 60.3114 93.6884 60.4095 93.4706 60.5956C93.2528 60.7816 93.1123 61.0423 93.0766 61.3265H95.4594Z" fill="#364BCC"/>
<path d="M96.6184 59.9544H97.1701V60.4179H97.235C97.3452 60.2382 97.5 60.0899 97.6844 59.9876C97.8687 59.8853 98.0764 59.8323 98.2873 59.8338C98.4779 59.8294 98.6674 59.8649 98.8434 59.9383C99.0194 60.0116 99.1781 60.1211 99.3092 60.2596C99.4403 60.3981 99.5408 60.5625 99.6044 60.7423C99.6679 60.9221 99.693 61.1133 99.678 61.3034V63.3014H99.131V61.3034C99.1431 61.1765 99.1278 61.0485 99.0861 60.928C99.0444 60.8076 98.9774 60.6974 98.8895 60.6051C98.8016 60.5128 98.6948 60.4405 98.5766 60.393C98.4583 60.3455 98.3312 60.324 98.2038 60.3299C98.0679 60.3274 97.9328 60.3519 97.8064 60.402C97.68 60.452 97.5648 60.5266 97.4674 60.6214C97.37 60.7162 97.2923 60.8294 97.2389 60.9544C97.1855 61.0794 97.1574 61.2138 97.1561 61.3497V63.3014H96.6045L96.6184 59.9544Z" fill="#364BCC"/>
<path d="M100.652 62.4391V60.3901H100.133V59.9543H100.675L100.805 58.8742H101.231V59.9543H102.094V60.3901H101.231V62.4159C101.226 62.4865 101.235 62.5575 101.258 62.6244C101.281 62.6912 101.318 62.7524 101.367 62.804C101.416 62.8556 101.474 62.8964 101.54 62.9238C101.605 62.9511 101.675 62.9645 101.746 62.963C101.882 62.9582 102.016 62.9348 102.145 62.8934V63.357C101.969 63.4118 101.786 63.4414 101.602 63.4451C101.472 63.4488 101.342 63.4249 101.221 63.3749C101.1 63.3249 100.992 63.25 100.902 63.155C100.812 63.06 100.743 62.9471 100.7 62.8238C100.657 62.7004 100.641 62.5693 100.652 62.4391Z" fill="#364BCC"/>
<path d="M0 22.0523C0 14.6351 5.44703 9.84634 13.2073 9.84634C20.9676 9.84634 26.002 14.6583 26.002 22.145C26.0105 22.9198 25.9656 23.6943 25.8676 24.4629H8.7616C9.30398 27.0033 11.0285 28.5934 13.5689 28.5934C14.4435 28.6291 15.3093 28.4074 16.0592 27.9559C16.809 27.5043 17.4099 26.8427 17.7874 26.053L25.0934 27.351C23.9159 31.7642 19.104 34.4437 13.1146 34.4437C5.35431 34.4437 0 29.5854 0 22.0523ZM17.4258 19.9338C17.1987 17.6159 15.4278 15.7152 13.0219 15.7152C10.6159 15.7152 9.12319 17.3331 8.66888 19.9338H17.4258Z" fill="#364BCC"/>
<path d="M27.1797 10.4351H35.6678V13.9073H36.1314C37.9857 11.1861 39.9419 9.91589 42.7095 9.91589C47.5631 9.91589 50.9704 13.8656 50.9704 19.2662V33.8411H42.4731V20.8285C42.4731 18.5616 41.2029 17.0179 39.2049 17.0179C37.2068 17.0179 35.6678 18.6497 35.6678 20.9676V33.8411H27.1797V10.4351Z" fill="#364BCC"/>
<path d="M51.9209 22.1451C51.9209 14.7046 56.1394 9.84637 62.2679 9.84637C65.2626 9.84637 67.5295 11.0285 69.0732 13.1609H69.5368V0H78.0249V33.8411H69.5368V31.1292H69.0732C67.5295 33.2616 65.3646 34.4437 62.3143 34.4437C56.0931 34.4437 51.9209 29.6689 51.9209 22.1451ZM69.8891 22.1451C69.8891 19.1967 67.8957 16.9715 65.1699 16.9715C62.4441 16.9715 60.4507 19.1967 60.4507 22.1451C60.4507 25.0934 62.4024 27.3186 65.1699 27.3186C67.9375 27.3186 69.8799 25.0934 69.8799 22.1451H69.8891Z" fill="#364BCC"/>
<path d="M0.621094 50.108H4.73765C4.73765 51.2484 5.72044 51.9993 7.25024 51.9993C8.39064 51.9993 9.19262 51.508 9.19262 50.706C9.19262 49.7464 8.05223 49.5887 6.65223 49.4589C4.24626 49.2272 0.699902 48.9954 0.699902 45.3192C0.699902 42.496 3.20785 40.7344 7.01845 40.7344C10.7271 40.7344 13.4668 42.4682 13.4668 45.2126H9.16481C9.14163 44.2854 8.26084 43.6596 7.01845 43.6596C5.92905 43.6596 5.16414 44.151 5.16414 44.8788C5.16414 45.8894 6.74494 45.9404 8.53435 46.1444C10.9681 46.404 14.0231 47.002 14.0231 50.1589C14.0231 53.1397 11.4085 54.9523 7.15752 54.9523C3.13368 54.9523 0.621094 53.1119 0.621094 50.108Z" fill="#364BCC"/>
<path d="M14.6026 60.1027V56.3477C15.2823 56.6 16.0008 56.7317 16.7258 56.7371C18.2046 56.7371 18.9834 55.7543 19.345 54.7159L12.79 41.147H18.047L21.051 48.5272H21.3245L23.6424 41.147H28.6165L23.5404 55.1331C22.1496 58.8418 20.5364 60.5941 17.7132 60.5941C16.6565 60.6014 15.6057 60.4354 14.6026 60.1027Z" fill="#364BCC"/>
<path d="M27.9395 50.108H32.0607C32.0607 51.2484 33.0434 51.9994 34.5732 51.9994C35.709 51.9994 36.511 51.508 36.511 50.706C36.511 49.7464 35.3752 49.5888 33.9752 49.459C31.5693 49.2272 28.0183 48.9954 28.0183 45.3193C28.0183 42.4961 30.5308 40.7345 34.3368 40.7345C38.0454 40.7345 40.7852 42.4683 40.7852 45.2126H36.4878C36.46 44.2855 35.5607 43.6597 34.3368 43.6597C33.252 43.6597 32.4825 44.1511 32.4825 44.8789C32.4825 45.8895 34.0633 45.9405 35.8481 46.1444C38.2818 46.404 41.3415 47.0021 41.3415 50.159C41.3415 53.1398 38.7222 54.9524 34.4759 54.9524C30.452 54.9524 27.9395 53.112 27.9395 50.108Z" fill="#364BCC"/>
<path d="M42.9648 49.6954V44.596H41.2588V41.147H43.1502L44.031 36.9749H47.8369V41.147H50.6184V44.5914H47.8369V49.459C47.8369 50.4974 48.4581 51.1974 49.4131 51.1974C49.851 51.1839 50.2862 51.1233 50.7111 51.0166V54.3822C49.7654 54.685 48.7789 54.8413 47.7859 54.8457C44.8515 54.8457 42.9648 52.7735 42.9648 49.6954Z" fill="#364BCC"/>
<path d="M50.6787 47.7762C50.6787 43.5298 53.7893 40.8225 58.2165 40.8225C62.6436 40.8225 65.5178 43.5669 65.5178 47.8365C65.5235 48.2782 65.4971 48.7197 65.439 49.1576H55.6761C55.9867 50.6086 56.9741 51.5173 58.4251 51.5173C58.9239 51.5364 59.4175 51.4093 59.845 51.1515C60.2725 50.8937 60.6153 50.5164 60.831 50.0663L65.0032 50.8173C64.331 53.3298 61.5867 54.855 58.1701 54.855C53.7337 54.8457 50.6787 52.0782 50.6787 47.7762ZM60.6224 46.5616C60.5841 45.9181 60.3047 45.3126 59.8399 44.8659C59.3751 44.4191 58.759 44.1639 58.1145 44.151C56.7655 44.151 55.8847 45.0782 55.6251 46.5616H60.6224Z" fill="#364BCC"/>
<path d="M66.1943 41.1471H71.0109V43.298H71.2937C71.6417 42.5497 72.198 41.9176 72.896 41.4773C73.594 41.0371 74.4041 40.8073 75.2294 40.8156C76.0546 40.824 76.8599 41.07 77.5489 41.5242C78.2379 41.9785 78.7814 42.6217 79.1142 43.3769H79.3738C79.7149 42.5908 80.2868 41.927 81.0137 41.4734C81.7405 41.0197 82.5881 40.7976 83.444 40.8365C86.2255 40.8365 88.2606 42.9365 88.2606 46.0146V54.512H83.393V47.0947C83.393 45.8802 82.6652 44.9206 81.4738 44.8696C80.2824 44.8186 79.5592 45.7967 79.5592 47.0947V54.512H74.6917V47.0947C74.6917 45.7504 73.9639 44.8696 72.8791 44.8696C71.7943 44.8696 71.0248 45.7504 71.0248 47.0947V54.512H66.1943V41.1471Z" fill="#364BCC"/>
<path d="M88.8262 50.108H92.9427C92.9427 51.2484 93.9302 51.9993 95.4553 51.9993C96.5957 51.9993 97.3977 51.508 97.3977 50.706C97.3977 49.7464 96.2573 49.5887 94.8619 49.4589C92.4513 49.2272 88.905 48.9954 88.905 45.3192C88.905 42.496 91.4176 40.7344 95.2235 40.7344C98.9321 40.7344 101.672 42.4682 101.672 45.2126H97.3745C97.3467 44.2854 96.4474 43.6596 95.2235 43.6596C94.1341 43.6596 93.3692 44.151 93.3692 44.8788C93.3692 45.8894 94.9454 45.9404 96.7348 46.1444C99.1686 46.404 102.224 47.002 102.224 50.1589C102.224 53.1397 99.609 54.9523 95.3626 54.9523C91.3249 54.9523 88.8262 53.1119 88.8262 50.108Z" fill="#364BCC"/>
<path d="M105 22.2516C105 25.7065 103.628 29.0198 101.185 31.4628C98.742 33.9057 95.4286 35.2781 91.9738 35.2781C88.5189 35.2781 85.2056 33.9057 82.7626 31.4628C80.3197 29.0198 78.9473 25.7065 78.9473 22.2516H86.7956C86.8359 23.5963 87.3984 24.8725 88.3637 25.8094C89.3291 26.7463 90.6215 27.2703 91.9668 27.2703C93.3121 27.2703 94.6045 26.7463 95.5699 25.8094C96.5353 24.8725 97.0977 23.5963 97.138 22.2516H105Z" fill="url(#paint0_linear_345_238)"/>
<path d="M105 22.1358V22.2517H97.1195V22.1497C97.0792 20.805 96.5167 19.5289 95.5513 18.5919C94.5859 17.655 93.2936 17.131 91.9483 17.131C90.603 17.131 89.3106 17.655 88.3452 18.5919C87.3798 19.5289 86.8173 20.805 86.7771 22.1497V22.2517H78.9473V22.1497C78.9473 20.439 79.2842 18.7451 79.9388 17.1646C80.5935 15.5842 81.553 14.1482 82.7626 12.9385C83.9723 11.7289 85.4083 10.7694 86.9887 10.1148C88.5692 9.46011 90.2631 9.12317 91.9738 9.12317C93.6844 9.12317 95.3783 9.46011 96.9588 10.1148C98.5392 10.7694 99.9753 11.7289 101.185 12.9385C102.395 14.1482 103.354 15.5842 104.009 17.1646C104.663 18.7451 105 20.439 105 22.1497V22.1358Z" fill="url(#paint1_linear_345_238)"/>
<defs>
<linearGradient id="paint0_linear_345_238" x1="77.64" y1="28.1808" x2="96.5122" y2="28.6536" gradientUnits="userSpaceOnUse">
<stop stop-color="#00BF9F"/>
<stop offset="1" stop-color="#364BCC"/>
</linearGradient>
<linearGradient id="paint1_linear_345_238" x1="110.192" y1="15.6735" x2="84.1393" y2="15.6735" gradientUnits="userSpaceOnUse">
<stop offset="0.25" stop-color="#00BF9F"/>
<stop offset="1" stop-color="#364BCC"/>
</linearGradient>
</defs>
</svg>
