<svg width="163" height="101" viewBox="0 0 163 101" fill="none" xmlns="http://www.w3.org/2000/svg">
<path d="M68.5609 93.072H69.3813V93.7917H69.4892C69.6329 93.5184 69.8495 93.2904 70.115 93.1328C70.3806 92.9753 70.6846 92.8945 70.9933 92.8993C71.3421 92.8922 71.6861 92.9827 71.9862 93.1608C72.2863 93.3388 72.5307 93.5972 72.6916 93.9068H72.7852C72.9569 93.5989 73.2088 93.3433 73.5142 93.1671C73.8196 92.991 74.167 92.9009 74.5195 92.9065C74.8113 92.9075 75.0997 92.9689 75.3667 93.0867C75.6336 93.2046 75.8733 93.3763 76.0706 93.5913C76.268 93.8062 76.4187 94.0596 76.5134 94.3356C76.6081 94.6116 76.6447 94.9042 76.6209 95.195V98.2895H75.7645V95.1878C75.7823 94.9984 75.761 94.8074 75.702 94.6265C75.6429 94.4457 75.5473 94.2789 75.4212 94.1366C75.295 93.9942 75.1409 93.8792 74.9685 93.7989C74.7961 93.7185 74.609 93.6744 74.4188 93.6693C74.2229 93.669 74.0291 93.7087 73.8491 93.786C73.6691 93.8632 73.5067 93.9763 73.372 94.1185C73.2373 94.2606 73.133 94.4288 73.0655 94.6127C72.998 94.7965 72.9687 94.9922 72.9795 95.1878V98.2895H72.1231V95.1878C72.1464 94.9986 72.1295 94.8065 72.0734 94.6242C72.0173 94.442 71.9233 94.2737 71.7976 94.1303C71.6719 93.9869 71.5173 93.8717 71.344 93.7923C71.1706 93.7128 70.9824 93.671 70.7918 93.6693C70.5934 93.6601 70.3954 93.6937 70.2113 93.7678C70.0271 93.8419 69.861 93.9549 69.7244 94.099C69.5879 94.2431 69.4839 94.415 69.4197 94.6028C69.3555 94.7907 69.3326 94.9903 69.3525 95.1878V98.2895H68.5609V93.072Z" fill="#364BCC"/>
<path d="M77.4198 95.5978C77.4198 94.8706 77.7086 94.1732 78.2228 93.659C78.737 93.1448 79.4344 92.856 80.1616 92.856C80.8888 92.856 81.5862 93.1448 82.1004 93.659C82.6146 94.1732 82.9035 94.8706 82.9035 95.5978C82.9103 95.7105 82.9103 95.8234 82.9035 95.936H78.2977C78.3328 96.4221 78.5547 96.8758 78.917 97.2018C79.2792 97.5278 79.7537 97.7009 80.2408 97.6848C80.6005 97.6936 80.9559 97.6046 81.269 97.4271C81.5821 97.2497 81.8411 96.9905 82.0183 96.6773L82.7379 97.0371C82.5046 97.4937 82.1438 97.8728 81.6993 98.1282C81.2547 98.3837 80.7455 98.5047 80.2336 98.4764C79.8554 98.4879 79.479 98.4208 79.1281 98.2793C78.7772 98.1379 78.4594 97.9251 78.195 97.6546C77.9305 97.384 77.7251 97.0615 77.5916 96.7075C77.4582 96.3535 77.3997 95.9756 77.4198 95.5978ZM82.0039 95.202C81.9269 94.7674 81.6994 94.3738 81.3612 94.0903C81.023 93.8067 80.5957 93.6513 80.1544 93.6513C79.7131 93.6513 79.2858 93.8067 78.9476 94.0903C78.6094 94.3738 78.3819 94.7674 78.3049 95.202H82.0039Z" fill="#364BCC"/>
<path d="M83.5367 95.6626C83.5201 95.3006 83.5773 94.939 83.705 94.5999C83.8326 94.2607 84.0279 93.9511 84.2791 93.6899C84.5302 93.4286 84.8319 93.2213 85.1657 93.0804C85.4996 92.9395 85.8586 92.868 86.221 92.8704C86.5947 92.8538 86.9663 92.9347 87.2993 93.105C87.6324 93.2753 87.9155 93.5292 88.1209 93.8419H88.2288V90.7114H89.078V98.2605H88.2288V97.4617H88.1209C87.926 97.7835 87.6481 98.0469 87.3164 98.2242C86.9846 98.4015 86.6112 98.4861 86.2354 98.4692C85.8711 98.4716 85.5102 98.3997 85.1746 98.2581C84.839 98.1165 84.5358 97.9081 84.2833 97.6455C84.0308 97.3829 83.8344 97.0717 83.7061 96.7308C83.5777 96.3899 83.5201 96.0265 83.5367 95.6626ZM88.2432 95.6626C88.2221 95.2862 88.0911 94.9242 87.8665 94.6214C87.6418 94.3186 87.3333 94.0883 86.9792 93.9589C86.625 93.8296 86.2407 93.8069 85.8738 93.8936C85.5069 93.9804 85.1735 94.1728 84.9147 94.447C84.656 94.7213 84.4833 95.0653 84.418 95.4367C84.3528 95.808 84.3978 96.1903 84.5475 96.5364C84.6972 96.8824 84.945 97.177 85.2604 97.3836C85.5757 97.5903 85.9447 97.7 86.3217 97.6992C86.5841 97.6997 86.8437 97.6464 87.0847 97.5427C87.3256 97.4391 87.5428 97.2871 87.7228 97.0963C87.9028 96.9055 88.0419 96.6799 88.1314 96.4333C88.2209 96.1867 88.2589 95.9244 88.2432 95.6626Z" fill="#364BCC"/>
<path d="M90.1358 91.4672C90.1348 91.3866 90.1502 91.3067 90.1812 91.2323C90.2122 91.1579 90.2581 91.0906 90.3161 91.0347C90.3741 90.9787 90.4429 90.9352 90.5184 90.9069C90.5938 90.8785 90.6742 90.8659 90.7547 90.8699C90.8346 90.8658 90.9144 90.8784 90.9891 90.9069C91.0638 90.9354 91.1317 90.9791 91.1886 91.0353C91.2455 91.0915 91.29 91.1589 91.3194 91.2333C91.3488 91.3076 91.3623 91.3873 91.3592 91.4672C91.3643 91.5486 91.3523 91.6301 91.3239 91.7065C91.2955 91.783 91.2514 91.8526 91.1945 91.9109C91.1375 91.9693 91.0689 92.015 90.9932 92.0451C90.9174 92.0753 90.8362 92.0893 90.7547 92.0861C90.6727 92.0891 90.5908 92.0752 90.5144 92.0451C90.4379 92.0151 90.3685 91.9696 90.3104 91.9115C90.2523 91.8535 90.2068 91.784 90.1768 91.7076C90.1468 91.6311 90.1328 91.5493 90.1358 91.4672ZM90.323 93.072H91.1793V98.2607H90.323V93.072Z" fill="#364BCC"/>
<path d="M92.1652 95.6627C92.1453 95.2981 92.2009 94.9333 92.3287 94.5913C92.4565 94.2492 92.6536 93.9373 92.9077 93.6751C93.1618 93.4129 93.4674 93.206 93.8053 93.0676C94.1432 92.9291 94.506 92.862 94.8711 92.8705C95.4492 92.8406 96.0193 93.0154 96.4813 93.3641C96.9432 93.7129 97.2675 94.2134 97.397 94.7775L96.5622 94.8927C96.4613 94.5261 96.2407 94.2038 95.9356 93.977C95.6305 93.7501 95.2584 93.6317 94.8783 93.6405C94.3695 93.6834 93.8955 93.9158 93.55 94.2916C93.2045 94.6675 93.0127 95.1594 93.0127 95.6699C93.0127 96.1804 93.2045 96.6723 93.55 97.0482C93.8955 97.424 94.3695 97.6564 94.8783 97.6993C95.2612 97.7043 95.6352 97.583 95.9422 97.354C96.2492 97.125 96.4722 96.8012 96.5766 96.4327L97.4186 96.5479C97.2719 97.1057 96.9398 97.597 96.4768 97.941C96.0138 98.285 95.4475 98.4611 94.8711 98.4405C94.5076 98.4478 94.1465 98.3804 93.8101 98.2424C93.4738 98.1045 93.1693 97.8989 92.9157 97.6385C92.662 97.3781 92.4645 97.0683 92.3354 96.7285C92.2063 96.3886 92.1484 96.0259 92.1652 95.6627Z" fill="#364BCC"/>
<path d="M97.872 96.9511C97.872 96.03 98.6564 95.3535 100.196 95.1808L101.636 95.0081V94.7994C101.636 94.0797 101.132 93.648 100.276 93.648C99.4192 93.648 98.9803 94.0294 98.9947 94.677H98.1311C98.1311 93.576 98.9803 92.8779 100.29 92.8779C101.6 92.8779 102.449 93.6408 102.449 94.821V98.2609H101.6V97.5412H101.506C101.315 97.8423 101.047 98.0866 100.729 98.2486C100.411 98.4107 100.056 98.4845 99.6999 98.4624C98.642 98.4264 97.872 97.8723 97.872 96.9511ZM101.636 96.1955V95.7133L100.196 95.8789C99.1386 96.0084 98.7572 96.4258 98.7572 96.908C98.7572 97.3901 99.189 97.6996 99.887 97.6996C100.104 97.7244 100.323 97.7046 100.532 97.6414C100.741 97.5782 100.935 97.4729 101.101 97.332C101.268 97.191 101.404 97.0175 101.5 96.8221C101.597 96.6266 101.653 96.4134 101.665 96.1955H101.636Z" fill="#364BCC"/>
<path d="M103.586 90.7114H104.442V98.2605H103.586V90.7114Z" fill="#364BCC"/>
<path d="M107.494 95.598C107.53 94.8961 107.834 94.2347 108.344 93.7506C108.853 93.2665 109.529 92.9966 110.232 92.9966C110.935 92.9966 111.611 93.2665 112.121 93.7506C112.63 94.2347 112.934 94.8961 112.97 95.598C112.97 95.6988 112.97 95.8211 112.97 95.9362H108.372C108.407 96.4223 108.629 96.876 108.991 97.202C109.353 97.528 109.828 97.7011 110.315 97.685C110.675 97.6946 111.03 97.6059 111.344 97.4284C111.657 97.2508 111.916 96.9912 112.092 96.6775L112.812 97.0373C112.577 97.4939 112.214 97.8727 111.769 98.1281C111.323 98.3834 110.813 98.5045 110.3 98.4766C109.923 98.4871 109.547 98.4192 109.197 98.2773C108.847 98.1354 108.53 97.9225 108.267 97.6521C108.003 97.3816 107.798 97.0595 107.665 96.706C107.532 96.3524 107.474 95.9752 107.494 95.598ZM112.078 95.2022C112.014 94.7567 111.788 94.3505 111.442 94.0622C111.097 93.7738 110.657 93.6236 110.207 93.6406C109.762 93.6264 109.329 93.7786 108.99 94.0674C108.652 94.3563 108.434 94.761 108.379 95.2022H112.078Z" fill="#364BCC"/>
<path d="M118.195 93.8638H118.296V93.0722H119.152V100.628H118.296V97.4908H118.195C117.99 97.8048 117.708 98.0601 117.374 98.2318C117.041 98.4034 116.669 98.4853 116.295 98.4695C115.552 98.4695 114.84 98.1746 114.315 97.6496C113.79 97.1246 113.496 96.4126 113.496 95.6701C113.496 94.9277 113.79 94.2156 114.315 93.6906C114.84 93.1656 115.552 92.8707 116.295 92.8707C116.671 92.8564 117.044 92.9406 117.377 93.1148C117.71 93.289 117.992 93.5472 118.195 93.8638ZM114.46 95.6629C114.478 96.0395 114.606 96.4025 114.829 96.707C115.051 97.0115 115.358 97.2441 115.711 97.376C116.065 97.508 116.449 97.5335 116.816 97.4494C117.184 97.3654 117.519 97.1754 117.779 96.903C118.04 96.6307 118.215 96.2878 118.283 95.9169C118.351 95.546 118.309 95.1634 118.162 94.8162C118.015 94.4691 117.769 94.1728 117.455 93.9638C117.141 93.7549 116.773 93.6426 116.396 93.6407C116.134 93.6415 115.876 93.6949 115.636 93.7979C115.395 93.9009 115.178 94.0513 114.998 94.2401C114.817 94.4289 114.676 94.6522 114.584 94.8967C114.491 95.1412 114.449 95.4018 114.46 95.6629Z" fill="#364BCC"/>
<path d="M124.945 98.2604H124.096V97.5408H123.995C123.822 97.823 123.579 98.0552 123.288 98.2142C122.998 98.3733 122.671 98.4537 122.34 98.4475C122.044 98.4556 121.749 98.4012 121.476 98.2877C121.202 98.1743 120.955 98.0044 120.751 97.7891C120.548 97.5739 120.391 97.3181 120.293 97.0384C120.195 96.7588 120.157 96.4616 120.181 96.1663V93.0718H121.038V96.1663C121.016 96.3638 121.038 96.5635 121.102 96.7516C121.166 96.9397 121.27 97.1117 121.407 97.2555C121.544 97.3993 121.711 97.5116 121.895 97.5845C122.08 97.6574 122.279 97.6891 122.477 97.6775C122.688 97.6823 122.898 97.6449 123.095 97.5676C123.292 97.4903 123.471 97.3745 123.622 97.2271C123.774 97.0797 123.894 96.9036 123.977 96.7091C124.059 96.5146 124.102 96.3056 124.103 96.0943V93.0718H124.953L124.945 98.2604Z" fill="#364BCC"/>
<path d="M126.017 91.4672C126.016 91.3866 126.032 91.3067 126.063 91.2323C126.094 91.1579 126.14 91.0906 126.198 91.0347C126.256 90.9787 126.325 90.9352 126.4 90.9069C126.475 90.8785 126.556 90.8659 126.636 90.8699C126.716 90.8658 126.796 90.8784 126.871 90.9069C126.945 90.9354 127.013 90.9791 127.07 91.0353C127.127 91.0915 127.172 91.1589 127.201 91.2333C127.23 91.3076 127.244 91.3873 127.241 91.4672C127.246 91.5486 127.234 91.6301 127.206 91.7065C127.177 91.783 127.133 91.8526 127.076 91.9109C127.019 91.9693 126.951 92.015 126.875 92.0451C126.799 92.0753 126.718 92.0893 126.636 92.0861C126.554 92.0891 126.472 92.0752 126.396 92.0451C126.32 92.0151 126.25 91.9696 126.192 91.9115C126.134 91.8535 126.088 91.784 126.058 91.7076C126.028 91.6311 126.014 91.5493 126.017 91.4672ZM126.205 93.072H127.054V98.2607H126.205V93.072Z" fill="#364BCC"/>
<path d="M133.854 95.6629C133.873 96.0249 133.818 96.3868 133.692 96.7267C133.566 97.0666 133.372 97.3773 133.122 97.6398C132.873 97.9024 132.572 98.1114 132.239 98.2541C131.906 98.3967 131.547 98.47 131.184 98.4695C130.808 98.4879 130.433 98.4071 130.097 98.2354C129.761 98.0637 129.476 97.807 129.27 97.4908H129.177V100.628H128.313V93.0722H129.162V93.8638H129.256C129.459 93.5472 129.741 93.289 130.074 93.1148C130.407 92.9406 130.78 92.8564 131.156 92.8707C131.519 92.8664 131.88 92.9364 132.215 93.0764C132.551 93.2164 132.854 93.4235 133.107 93.6849C133.36 93.9464 133.556 94.2567 133.685 94.5968C133.813 94.9369 133.871 95.2997 133.854 95.6629ZM129.148 95.6629C129.132 95.9256 129.17 96.1888 129.259 96.4363C129.349 96.6839 129.488 96.9105 129.668 97.1022C129.848 97.2939 130.066 97.4466 130.308 97.551C130.549 97.6555 130.81 97.7093 131.073 97.7093C131.336 97.7093 131.596 97.6555 131.838 97.551C132.08 97.4466 132.297 97.2939 132.478 97.1022C132.658 96.9105 132.797 96.6839 132.887 96.4363C132.976 96.1888 133.014 95.9256 132.998 95.6629C133.014 95.4002 132.976 95.137 132.887 94.8895C132.797 94.642 132.658 94.4154 132.478 94.2237C132.297 94.032 132.08 93.8792 131.838 93.7748C131.596 93.6704 131.336 93.6165 131.073 93.6165C130.81 93.6165 130.549 93.6704 130.308 93.7748C130.066 93.8792 129.848 94.032 129.668 94.2237C129.488 94.4154 129.349 94.642 129.259 94.8895C129.17 95.137 129.132 95.4002 129.148 95.6629Z" fill="#364BCC"/>
<path d="M134.747 93.072H135.567V93.7917H135.668C135.814 93.5184 136.032 93.2905 136.298 93.1331C136.565 92.9756 136.87 92.8947 137.179 92.8993C137.528 92.8922 137.872 92.9827 138.172 93.1608C138.472 93.3388 138.717 93.5972 138.878 93.9068H138.971C139.143 93.5989 139.395 93.3433 139.7 93.1671C140.006 92.991 140.353 92.9009 140.706 92.9065C140.997 92.9075 141.286 92.9689 141.553 93.0867C141.82 93.2046 142.059 93.3763 142.257 93.5913C142.454 93.8062 142.605 94.0596 142.699 94.3356C142.794 94.6116 142.831 94.9042 142.807 95.195V98.2895H141.951V95.1878C141.968 94.9984 141.947 94.8074 141.888 94.6265C141.829 94.4457 141.733 94.2789 141.607 94.1366C141.481 93.9942 141.327 93.8792 141.154 93.7989C140.982 93.7185 140.795 93.6744 140.605 93.6693C140.409 93.669 140.215 93.7087 140.035 93.786C139.855 93.8632 139.693 93.9763 139.558 94.1185C139.423 94.2606 139.319 94.4288 139.251 94.6127C139.184 94.7965 139.155 94.9922 139.165 95.1878V98.2895H138.309V95.1878C138.332 94.9986 138.315 94.8065 138.259 94.6242C138.203 94.442 138.109 94.2737 137.984 94.1303C137.858 93.9869 137.703 93.8717 137.53 93.7923C137.357 93.7128 137.168 93.671 136.978 93.6693C136.779 93.6601 136.581 93.6937 136.397 93.7678C136.213 93.8419 136.047 93.9549 135.91 94.099C135.774 94.2431 135.67 94.415 135.606 94.6028C135.542 94.7907 135.519 94.9903 135.538 95.1878V98.2895H134.689L134.747 93.072Z" fill="#364BCC"/>
<path d="M143.606 95.5978C143.606 94.8706 143.895 94.1732 144.409 93.659C144.923 93.1448 145.621 92.856 146.348 92.856C147.075 92.856 147.772 93.1448 148.287 93.659C148.801 94.1732 149.09 94.8706 149.09 95.5978C149.096 95.7105 149.096 95.8234 149.09 95.936H144.498C144.532 96.4228 144.753 96.8775 145.116 97.2039C145.478 97.5303 145.954 97.7028 146.441 97.6848C146.801 97.6936 147.156 97.6046 147.47 97.4271C147.783 97.2497 148.042 96.9905 148.219 96.6773L148.938 97.0371C148.705 97.4937 148.344 97.8728 147.9 98.1282C147.455 98.3837 146.946 98.5047 146.434 98.4764C146.055 98.4899 145.677 98.4243 145.324 98.2838C144.972 98.1432 144.652 97.9308 144.386 97.66C144.12 97.3893 143.913 97.0661 143.779 96.711C143.645 96.356 143.586 95.9769 143.606 95.5978ZM148.19 95.202C148.128 94.7558 147.902 94.3487 147.556 94.06C147.21 93.7714 146.769 93.6218 146.319 93.6404C145.875 93.6262 145.441 93.7784 145.103 94.0672C144.765 94.3561 144.546 94.7608 144.491 95.202H148.19Z" fill="#364BCC"/>
<path d="M149.989 93.072H150.845V93.7916H150.946C151.117 93.5125 151.357 93.2824 151.643 93.1235C151.93 92.9647 152.252 92.8825 152.579 92.8849C152.875 92.8779 153.169 92.9331 153.443 93.047C153.716 93.1608 153.962 93.3307 154.166 93.5457C154.369 93.7608 154.525 94.0161 154.624 94.2952C154.723 94.5743 154.762 94.871 154.738 95.1661V98.2678H153.889V95.1661C153.908 94.9692 153.884 94.7704 153.819 94.5834C153.755 94.3964 153.651 94.2255 153.514 94.0822C153.378 93.9389 153.212 93.8266 153.028 93.7529C152.845 93.6792 152.648 93.6457 152.45 93.6549C152.239 93.6511 152.029 93.6891 151.833 93.7668C151.637 93.8445 151.458 93.9603 151.307 94.1075C151.155 94.2547 151.035 94.4304 150.952 94.6244C150.869 94.8185 150.825 95.0271 150.823 95.2381V98.2678H149.967L149.989 93.072Z" fill="#364BCC"/>
<path d="M156.25 96.9291V93.7483H155.444V93.0718H156.286L156.487 91.395H157.149V93.0718H158.488V93.7483H157.149V96.8931C157.14 97.0027 157.154 97.1129 157.191 97.2167C157.227 97.3205 157.284 97.4155 157.36 97.4955C157.435 97.5756 157.526 97.6389 157.628 97.6815C157.729 97.724 157.838 97.7447 157.948 97.7423C158.158 97.735 158.367 97.6986 158.567 97.6344V98.354C158.294 98.4391 158.011 98.4851 157.725 98.4907C157.522 98.4966 157.321 98.4594 157.133 98.3818C156.946 98.3042 156.777 98.1879 156.638 98.0404C156.498 97.893 156.392 97.7177 156.325 97.5262C156.258 97.3347 156.232 97.1312 156.25 96.9291Z" fill="#364BCC"/>
<path d="M0 34.2335C0 22.7191 8.45586 15.2852 20.5028 15.2852C32.5496 15.2852 40.365 22.7551 40.365 34.3774C40.3782 35.5802 40.3085 36.7824 40.1563 37.9756H13.6013C14.4433 41.9193 17.1204 44.3877 21.0641 44.3877C22.4218 44.4431 23.7659 44.099 24.9299 43.398C26.094 42.6971 27.0268 41.67 27.6129 40.444L38.9545 42.459C37.1266 49.3101 29.6567 53.4696 20.3588 53.4696C8.31193 53.4696 0 45.9277 0 34.2335ZM27.0515 30.9447C26.6989 27.3464 23.9499 24.3959 20.2149 24.3959C16.4799 24.3959 14.1627 26.9075 13.4574 30.9447H27.0515Z" fill="#364BCC"/>
<path d="M42.1928 16.1991H55.3696V21.5892H56.0892C58.9678 17.3649 62.0047 15.3931 66.301 15.3931C73.8357 15.3931 79.1251 21.5245 79.1251 29.9084V52.5341H65.934V32.3336C65.934 28.8145 63.9621 26.4181 60.8605 26.4181C57.7588 26.4181 55.3696 28.9512 55.3696 32.5495V52.5341H42.1928V16.1991Z" fill="#364BCC"/>
<path d="M80.6005 34.3776C80.6005 22.8272 87.1493 15.2853 96.663 15.2853C101.312 15.2853 104.831 17.1204 107.227 20.4308H107.947V0H121.124V52.5343H107.947V48.3243H107.227C104.831 51.6347 101.47 53.4698 96.735 53.4698C87.0773 53.4698 80.6005 46.0574 80.6005 34.3776ZM108.494 34.3776C108.494 29.8006 105.4 26.3463 101.168 26.3463C96.9365 26.3463 93.842 29.8006 93.842 34.3776C93.842 38.9545 96.8717 42.4088 101.168 42.4088C105.464 42.4088 108.48 38.9545 108.48 34.3776H108.494Z" fill="#364BCC"/>
<path d="M0.964233 77.7866H7.3547C7.3547 79.5569 8.88035 80.7228 11.2552 80.7228C13.0255 80.7228 14.2705 79.96 14.2705 78.715C14.2705 77.2253 12.5002 76.9806 10.3268 76.7791C6.59188 76.4193 1.08657 76.0595 1.08657 70.3527C1.08657 65.97 4.97987 63.2354 10.8954 63.2354C16.6525 63.2354 20.9057 65.9268 20.9057 70.1871H14.2273C14.1914 68.7478 12.824 67.7763 10.8954 67.7763C9.2042 67.7763 8.01678 68.5391 8.01678 69.669C8.01678 71.2378 10.4708 71.317 13.2486 71.6336C17.0268 72.0366 21.7692 72.965 21.7692 77.8658C21.7692 82.4931 17.7104 85.3069 11.1113 85.3069C4.86472 85.3069 0.964233 82.4499 0.964233 77.7866Z" fill="#364BCC"/>
<path d="M22.6688 93.3024V87.4732C23.724 87.8648 24.8393 88.0694 25.9648 88.0777C28.2605 88.0777 29.4695 86.5521 30.0308 84.9401L19.855 63.876H28.0158L32.6791 75.3328H33.1037L36.7019 63.876H44.4237L36.5436 85.5877C34.3847 91.3449 31.8803 94.0652 27.4976 94.0652C25.8571 94.0766 24.2259 93.8189 22.6688 93.3024Z" fill="#364BCC"/>
<path d="M43.3732 77.7866H49.7708C49.7708 79.5569 51.2965 80.7228 53.6713 80.7228C55.4345 80.7228 56.6794 79.96 56.6794 78.715C56.6794 77.2253 54.9163 76.9806 52.743 76.7791C49.008 76.4193 43.4955 76.0595 43.4955 70.3527C43.4955 65.97 47.396 63.2354 53.3043 63.2354C59.0615 63.2354 63.3146 65.9268 63.3146 70.1871H56.6435C56.6003 68.7478 55.2042 67.7763 53.3043 67.7763C51.6203 67.7763 50.4257 68.5391 50.4257 69.669C50.4257 71.2378 52.8797 71.317 55.6504 71.6336C59.4285 72.0366 64.1782 72.965 64.1782 77.8658C64.1782 82.4931 60.1122 85.3069 53.5202 85.3069C47.2737 85.3069 43.3732 82.4499 43.3732 77.7866Z" fill="#364BCC"/>
<path d="M66.6969 77.146V69.2299H64.0486V63.8758H66.9847L68.3521 57.3989H74.2604V63.8758H78.5783V69.2227H74.2604V76.779C74.2604 78.391 75.2247 79.4777 76.7072 79.4777C77.387 79.4568 78.0625 79.3627 78.7222 79.197V84.4217C77.2541 84.8918 75.7227 85.1344 74.1812 85.1413C69.6259 85.1413 66.6969 81.9245 66.6969 77.146Z" fill="#364BCC"/>
<path d="M78.6721 74.1668C78.6721 67.5748 83.5009 63.3721 90.3735 63.3721C97.2462 63.3721 101.708 67.6324 101.708 74.2603C101.717 74.9461 101.676 75.6315 101.586 76.3113H86.4299C86.912 78.5638 88.4449 79.9743 90.6974 79.9743C91.4718 80.0041 92.238 79.8068 92.9016 79.4065C93.5653 79.0063 94.0974 78.4207 94.4323 77.7218L100.909 78.8877C99.8657 82.7882 95.6054 85.1558 90.3016 85.1558C83.4145 85.1414 78.6721 80.8451 78.6721 74.1668ZM94.1085 72.2813C94.049 71.2823 93.6152 70.3424 92.8937 69.6488C92.1721 68.9553 91.2158 68.5591 90.2152 68.5391C88.121 68.5391 86.7537 69.9784 86.3507 72.2813H94.1085Z" fill="#364BCC"/>
<path d="M102.758 63.8756H110.236V67.2148H110.675C111.215 66.0531 112.078 65.0718 113.162 64.3884C114.246 63.7049 115.503 63.3483 116.784 63.3612C118.065 63.3741 119.316 63.756 120.385 64.4612C121.455 65.1663 122.298 66.1648 122.815 67.3371H123.218C123.748 66.117 124.635 65.0865 125.764 64.3822C126.892 63.6779 128.208 63.3331 129.537 63.3935C133.854 63.3935 137.014 66.6535 137.014 71.4319V84.6231H129.457V73.1087C129.457 71.2232 128.328 69.7336 126.478 69.6544C124.629 69.5753 123.506 71.0937 123.506 73.1087V84.6231H115.95V73.1087C115.95 71.0217 114.82 69.6544 113.136 69.6544C111.452 69.6544 110.257 71.0217 110.257 73.1087V84.6231H102.758V63.8756Z" fill="#364BCC"/>
<path d="M137.892 77.7866H144.282C144.282 79.5569 145.815 80.7228 148.183 80.7228C149.953 80.7228 151.198 79.96 151.198 78.715C151.198 77.2253 149.428 76.9806 147.262 76.7791C143.519 76.4193 138.014 76.0595 138.014 70.3527C138.014 65.97 141.915 63.2354 147.823 63.2354C153.58 63.2354 157.833 65.9268 157.833 70.1871H151.162C151.119 68.7478 149.723 67.7763 147.823 67.7763C146.132 67.7763 144.944 68.5391 144.944 69.669C144.944 71.2378 147.391 71.317 150.169 71.6336C153.947 72.0366 158.69 72.965 158.69 77.8658C158.69 82.4931 154.631 85.3069 148.039 85.3069C141.771 85.3069 137.892 82.4499 137.892 77.7866Z" fill="#364BCC"/>
<path d="M163 34.543C163 39.9062 160.869 45.0498 157.077 48.8421C153.285 52.6345 148.141 54.7651 142.778 54.7651C137.415 54.7651 132.271 52.6345 128.479 48.8421C124.686 45.0498 122.556 39.9062 122.556 34.543H134.739C134.802 36.6304 135.675 38.6115 137.174 40.0659C138.672 41.5204 140.679 42.3338 142.767 42.3338C144.856 42.3338 146.862 41.5204 148.36 40.0659C149.859 38.6115 150.732 36.6304 150.795 34.543H163Z" fill="url(#paint0_linear_324_3214)"/>
<path d="M163 34.3631V34.543H150.766V34.3847C150.703 32.2972 149.83 30.3162 148.332 28.8617C146.833 27.4073 144.827 26.5938 142.738 26.5938C140.65 26.5938 138.644 27.4073 137.145 28.8617C135.646 30.3162 134.773 32.2972 134.711 34.3847V34.543H122.556V34.3847C122.556 31.7291 123.079 29.0995 124.095 26.646C125.111 24.1926 126.601 21.9633 128.479 20.0855C130.357 18.2077 132.586 16.7182 135.039 15.7019C137.493 14.6857 140.122 14.1626 142.778 14.1626C145.434 14.1626 148.063 14.6857 150.517 15.7019C152.97 16.7182 155.199 18.2077 157.077 20.0855C158.955 21.9633 160.444 24.1926 161.461 26.646C162.477 29.0995 163 31.7291 163 34.3847V34.3631Z" fill="url(#paint1_linear_324_3214)"/>
<defs>
<linearGradient id="paint0_linear_324_3214" x1="120.526" y1="43.7473" x2="149.823" y2="44.4813" gradientUnits="userSpaceOnUse">
<stop stop-color="#00BF9F"/>
<stop offset="1" stop-color="#364BCC"/>
</linearGradient>
<linearGradient id="paint1_linear_324_3214" x1="171.06" y1="24.3312" x2="130.616" y2="24.3312" gradientUnits="userSpaceOnUse">
<stop offset="0.25" stop-color="#00BF9F"/>
<stop offset="1" stop-color="#364BCC"/>
</linearGradient>
</defs>
</svg>
