<svg width="80" height="80" viewBox="0 0 80 80" fill="none" xmlns="http://www.w3.org/2000/svg">
<path d="M33.5935 49.9213C32.2991 49.9222 31.2491 50.9724 31.2481 52.2666C31.2472 53.5608 32.2958 54.6094 33.59 54.6084C34.8842 54.6075 35.9344 53.5574 35.9353 52.2631C35.9363 50.9689 34.8878 49.9203 33.5935 49.9213Z" fill="url(#paint0_linear_333_5305)"/>
<path d="M25.7814 49.9213C24.487 49.9222 23.437 50.9724 23.4361 52.2666C23.4352 53.5608 24.4838 54.6094 25.778 54.6084C27.0722 54.6075 28.1223 53.5574 28.1233 52.2631C28.1242 50.9689 27.0758 49.9203 25.7814 49.9213Z" fill="url(#paint1_linear_333_5305)"/>
<path d="M17.9694 49.9213C16.675 49.9222 15.625 50.9724 15.6241 52.2666C15.6231 53.5608 16.6717 54.6094 17.9659 54.6084C19.2601 54.6075 20.3103 53.5574 20.3112 52.2631C20.3122 50.9689 19.2637 49.9203 17.9694 49.9213Z" fill="url(#paint2_linear_333_5305)"/>
<path d="M10.1574 49.9213C8.86298 49.9222 7.81298 50.9724 7.81204 52.2666C7.81111 53.5608 8.8597 54.6094 10.1539 54.6084C11.4481 54.6075 12.4983 53.5574 12.4992 52.2631C12.5002 50.9689 11.4517 49.9203 10.1574 49.9213Z" fill="url(#paint3_linear_333_5305)"/>
<path d="M50.78 49.9213C49.4856 49.9222 48.4356 50.9724 48.4347 52.2666C48.4338 53.5608 49.4824 54.6094 50.7766 54.6084C52.0709 54.6075 53.1209 53.5574 53.1219 52.2631C53.1228 50.9689 52.0742 49.9203 50.78 49.9213Z" fill="url(#paint4_linear_333_5305)"/>
<path d="M37.5875 8.45496L35.8616 8.90621C32.3547 9.82277 28.5794 9.82277 25.0723 8.90621L23.3464 8.45511L8.51172 34.057L10.5495 35.2293C15.1014 37.8479 20.0533 39.5225 25.268 40.2065C27.0117 40.4353 28.7552 40.5495 30.4942 40.5493C33.9556 40.5493 37.3978 40.0968 40.7769 39.1948C44.1383 38.2973 47.3709 36.9632 50.3847 35.2293L52.4225 34.057L37.5875 8.45496ZM39.5677 34.6661C35.0869 35.8625 30.4808 36.1628 25.8775 35.559C22.0564 35.0578 18.3952 33.954 14.9634 32.2714L25.6461 13.8353C28.8155 14.4311 32.1188 14.4311 35.288 13.8353L45.97 32.2704C43.9208 33.2737 41.7756 34.0765 39.5677 34.6661Z" fill="url(#paint5_linear_333_5305)"/>
<path d="M29.2134 27.4781C28.0016 27.5353 26.7805 27.4358 25.5841 27.1826C24.3877 26.9295 23.2311 26.5258 22.1464 25.9828L20.0481 30.174C21.4903 30.8961 23.0266 31.4325 24.6138 31.7681C25.9105 32.0426 27.2302 32.1808 28.5486 32.1808C28.8439 32.1808 29.1392 32.1739 29.4341 32.16L29.2134 27.4781Z" fill="url(#paint6_linear_333_5305)"/>
<path d="M38.7426 22.8578C37.6578 23.4009 36.5012 23.8047 35.3048 24.0578C34.1084 24.3109 32.8873 24.4104 31.6756 24.3533L31.455 29.0353C31.75 29.0492 32.0451 29.0561 32.3405 29.0561C33.6587 29.0561 34.9784 28.9178 36.2751 28.6434C37.8625 28.3076 39.3987 27.7711 40.8409 27.0492L38.7426 22.8578Z" fill="url(#paint7_linear_333_5305)"/>
<path d="M34.0833 16.9888C31.7364 17.6024 29.207 17.6024 26.86 16.9888L25.6747 21.5236C27.2348 21.9314 28.8489 22.1381 30.4716 22.1381C32.0942 22.1381 33.7083 21.9314 35.2684 21.5236L34.0833 16.9888Z" fill="url(#paint8_linear_333_5305)"/>
<path d="M78.9016 17.7356C76.6756 16.0661 74.0283 15.1838 71.2458 15.1838C68.4633 15.1838 65.8159 16.0663 63.59 17.7356L62.4916 18.5594L64.5066 33.6722H68.902V65.7797C68.902 70.1303 65.3625 73.6699 61.0119 73.6699C56.6613 73.6699 53.1217 70.1303 53.1217 65.7797V62.5767H60.9338V1.64282H0V62.5767H48.4347V65.7797C48.4347 72.7149 54.0769 78.357 61.012 78.357C67.9472 78.357 73.5894 72.7149 73.5894 65.7797V33.6724H77.9848L80 18.5594L78.9016 17.7356ZM4.68719 6.33017H56.2467V42.2656H4.68719V6.33017ZM4.68719 57.8895V46.9527H56.2467V57.8895H4.68719ZM73.8811 28.985H68.6105L67.517 20.7853C69.8433 19.5797 72.6481 19.5797 74.9742 20.7853L73.8811 28.985Z" fill="url(#paint9_linear_333_5305)"/>
<defs>
<linearGradient id="paint0_linear_333_5305" x1="36.8694" y1="52.2599" x2="32.1822" y2="52.2599" gradientUnits="userSpaceOnUse">
<stop offset="0.25" stop-color="#00BF9F"/>
<stop offset="1" stop-color="#364BCC"/>
</linearGradient>
<linearGradient id="paint1_linear_333_5305" x1="29.0574" y1="52.2599" x2="24.3702" y2="52.2599" gradientUnits="userSpaceOnUse">
<stop offset="0.25" stop-color="#00BF9F"/>
<stop offset="1" stop-color="#364BCC"/>
</linearGradient>
<linearGradient id="paint2_linear_333_5305" x1="21.2453" y1="52.2599" x2="16.5582" y2="52.2599" gradientUnits="userSpaceOnUse">
<stop offset="0.25" stop-color="#00BF9F"/>
<stop offset="1" stop-color="#364BCC"/>
</linearGradient>
<linearGradient id="paint3_linear_333_5305" x1="13.4333" y1="52.2599" x2="8.74614" y2="52.2599" gradientUnits="userSpaceOnUse">
<stop offset="0.25" stop-color="#00BF9F"/>
<stop offset="1" stop-color="#364BCC"/>
</linearGradient>
<linearGradient id="paint4_linear_333_5305" x1="54.056" y1="52.2599" x2="49.3688" y2="52.2599" gradientUnits="userSpaceOnUse">
<stop offset="0.25" stop-color="#00BF9F"/>
<stop offset="1" stop-color="#364BCC"/>
</linearGradient>
<linearGradient id="paint5_linear_333_5305" x1="61.1734" y1="24.4681" x2="17.2626" y2="24.4681" gradientUnits="userSpaceOnUse">
<stop offset="0.25" stop-color="#00BF9F"/>
<stop offset="1" stop-color="#364BCC"/>
</linearGradient>
<linearGradient id="paint6_linear_333_5305" x1="31.3046" y1="29.0752" x2="21.9186" y2="29.0752" gradientUnits="userSpaceOnUse">
<stop offset="0.25" stop-color="#00BF9F"/>
<stop offset="1" stop-color="#364BCC"/>
</linearGradient>
<linearGradient id="paint7_linear_333_5305" x1="42.7114" y1="25.9504" x2="33.3255" y2="25.9504" gradientUnits="userSpaceOnUse">
<stop offset="0.25" stop-color="#00BF9F"/>
<stop offset="1" stop-color="#364BCC"/>
</linearGradient>
<linearGradient id="paint8_linear_333_5305" x1="37.1804" y1="19.558" x2="27.5866" y2="19.558" gradientUnits="userSpaceOnUse">
<stop offset="0.25" stop-color="#00BF9F"/>
<stop offset="1" stop-color="#364BCC"/>
</linearGradient>
<linearGradient id="paint9_linear_333_5305" x1="95.9431" y1="39.9187" x2="15.9431" y2="39.9187" gradientUnits="userSpaceOnUse">
<stop offset="0.25" stop-color="#00BF9F"/>
<stop offset="1" stop-color="#364BCC"/>
</linearGradient>
</defs>
</svg>
