<svg width="80" height="78" viewBox="0 0 80 78" fill="none" xmlns="http://www.w3.org/2000/svg">
<path d="M78.1719 58.6627L68.1381 48.6289V15.0375C68.1381 11.1595 64.9831 8.00452 61.1052 8.00452H59.2408C58.3112 5.71593 56.0653 4.09733 53.447 4.09733C52.5559 4.09733 51.7083 4.28608 50.9405 4.62358L47.0764 0.759521L36.3156 8.44577L36.8631 10.0884C38.4792 14.9367 42.3386 18.7961 47.187 20.4123L48.8297 20.9598L52.0564 16.4426C52.5041 16.5448 52.9691 16.6005 53.4472 16.6005C56.0653 16.6005 58.3116 14.9817 59.2409 12.6933H61.1053C62.398 12.6933 63.4497 13.745 63.4497 15.0376V29.7289H45.7887V34.4176H63.4495V45.5436C63.0958 45.4823 62.735 45.4492 62.3686 45.4492C62.09 45.4492 61.8144 45.4689 61.5427 45.5047C60.6945 43.0572 58.3675 41.2944 55.635 41.2944H28.842L10.6691 23.1212C9.48828 21.9405 7.91844 21.2901 6.24859 21.2901C4.57875 21.2901 3.00891 21.9405 1.82813 23.1212C-0.609375 25.5587 -0.609375 29.5247 1.82813 31.9622L21.8309 51.965C23.0117 53.1458 24.5816 53.7961 26.2514 53.7961C26.4091 53.7961 26.5655 53.7884 26.7214 53.7769V53.7972H29.8472V64.7375H14.2183V77.2406H68.1381V67.0819V66.3111L69.3309 67.5039C70.5117 68.6847 72.0816 69.335 73.7514 69.335C75.4212 69.335 76.9911 68.6847 78.1719 67.5039C80.6094 65.0664 80.6094 61.1002 78.1719 58.6627ZM47.1031 15.3097C44.8948 14.1894 43.0856 12.3801 41.9655 10.172L46.5695 6.88343L47.6637 7.97765C47.3627 8.70936 47.1953 9.50968 47.1953 10.3489C47.1953 11.6062 47.5698 12.7772 48.2111 13.7586L47.1031 15.3097ZM53.4469 11.9117C52.5852 11.9117 51.8839 11.2106 51.8839 10.3487C51.8839 9.48702 52.585 8.78577 53.4469 8.78577C54.3088 8.78577 55.0098 9.48687 55.0098 10.3487C55.0098 11.2106 54.3088 11.9117 53.4469 11.9117ZM27.3567 48.6497C27.0614 48.9448 26.6691 49.1075 26.2516 49.1075C25.8341 49.1075 25.4416 48.945 25.1464 48.6497L5.14344 28.6469C4.53422 28.0375 4.53422 27.0458 5.14344 26.4364C5.43859 26.1411 5.83109 25.9786 6.24859 25.9786C6.66609 25.9786 7.05859 26.1411 7.35375 26.4364L27.3566 46.4392C27.9659 47.0486 27.9659 48.0405 27.3567 48.6497ZM63.4492 61.6223V64.7375H52.5091V53.7972H55.6348C55.9148 53.7972 56.1902 53.7769 56.4605 53.7409C56.7594 54.6109 57.2547 55.4278 57.9478 56.1209L63.4492 61.6223ZM32.302 45.9828H55.635C56.4967 45.9828 57.198 46.6839 57.198 47.5458C57.198 48.4075 56.4969 49.1087 55.635 49.1087H32.3014C32.5642 48.0845 32.5647 47.0067 32.302 45.9828ZM47.8205 53.797V64.7373H34.5359V53.797H47.8205ZM63.4494 72.5519H18.9069V69.4261H63.4494V72.5519ZM74.8566 64.1884C74.5612 64.4836 74.1689 64.6462 73.7514 64.6462C73.3339 64.6462 72.9414 64.4837 72.6462 64.1884L61.2634 52.8056C60.6542 52.1962 60.6542 51.2045 61.2634 50.5953C61.5586 50.3001 61.9511 50.1375 62.3686 50.1375C62.7861 50.1375 63.1786 50.3 63.4737 50.5953L74.8566 61.9781C75.4659 62.5876 75.4659 63.5789 74.8566 64.1884Z" fill="url(#paint0_linear_333_5267)"/>
<defs>
<linearGradient id="paint0_linear_333_5267" x1="95.9431" y1="38.919" x2="15.9431" y2="38.919" gradientUnits="userSpaceOnUse">
<stop offset="0.25" stop-color="#00BF9F"/>
<stop offset="1" stop-color="#364BCC"/>
</linearGradient>
</defs>
</svg>
