<svg width="80" height="80" viewBox="0 0 80 80" fill="none" xmlns="http://www.w3.org/2000/svg">
<path d="M68.2844 11.7156C60.7292 4.16078 50.6844 0 40 0C29.3156 0 19.2708 4.16078 11.7156 11.7156C4.16078 19.2708 0 29.3156 0 40C0 41.3566 0.0701563 42.715 0.206094 44.0625H0V80H58.75V75.3403C64.8925 72.0759 70.0881 67.2642 73.8214 61.3659C77.8634 54.98 80 47.5919 80 40C80 29.3156 75.8392 19.2708 68.2844 11.7156ZM21.25 75.3125H4.6875V48.75H21.25V75.3125ZM22.0312 40C22.0312 30.092 30.092 22.0312 40 22.0312C49.908 22.0312 57.9688 30.092 57.9688 40C57.9688 45.3094 55.6431 50.2503 51.7188 53.6234V50.3125H49.9584C50.0875 49.813 50.1562 49.2894 50.1562 48.75C50.1562 45.3038 47.3525 42.5 43.9062 42.5H36.0938C32.6475 42.5 29.8438 45.3038 29.8438 48.75C29.8438 49.2894 29.9125 49.813 30.0416 50.3125H28.2812V58.125H25.9375V44.0625H22.4958C22.1897 42.7375 22.0312 41.3783 22.0312 40ZM47.0312 55V58.125H32.9688V55H47.0312ZM34.5312 48.75C34.5312 47.8884 35.2322 47.1875 36.0938 47.1875H43.9062C44.7678 47.1875 45.4688 47.8884 45.4688 48.75C45.4688 49.6116 44.7678 50.3125 43.9062 50.3125H36.0938C35.2322 50.3125 34.5312 49.6116 34.5312 48.75ZM54.0625 75.3125H25.9375V62.8125H54.0625V75.3125ZM69.8606 58.8589C67.0188 63.3487 63.218 67.1258 58.75 69.9292V58.125H53.595C59.2544 53.8838 62.6562 47.2114 62.6562 40C62.6562 27.5073 52.4927 17.3438 40 17.3438C27.5073 17.3438 17.3438 27.5073 17.3438 40C17.3438 41.3713 17.4667 42.7287 17.7083 44.0625H4.92063C4.76688 42.7177 4.6875 41.358 4.6875 40C4.6875 30.5677 8.36062 21.7 15.0303 15.0303C21.7 8.36062 30.5677 4.6875 40 4.6875C49.4323 4.6875 58.3 8.36062 64.9697 15.0303C71.6394 21.7 75.3125 30.5677 75.3125 40C75.3125 46.7028 73.4273 53.2242 69.8606 58.8589Z" fill="url(#paint0_linear_332_4728)"/>
<path d="M69.375 42.3438C70.6694 42.3438 71.7188 41.2944 71.7188 40C71.7188 38.7056 70.6694 37.6562 69.375 37.6562C68.0806 37.6562 67.0312 38.7056 67.0312 40C67.0312 41.2944 68.0806 42.3438 69.375 42.3438Z" fill="url(#paint1_linear_332_4728)"/>
<path d="M67.0312 31.0938C68.3257 31.0938 69.375 30.0444 69.375 28.75C69.375 27.4556 68.3257 26.4062 67.0312 26.4062C65.7368 26.4062 64.6875 27.4556 64.6875 28.75C64.6875 30.0444 65.7368 31.0938 67.0312 31.0938Z" fill="url(#paint2_linear_332_4728)"/>
<path d="M59.8438 21.0938C61.1382 21.0938 62.1875 20.0444 62.1875 18.75C62.1875 17.4556 61.1382 16.4062 59.8438 16.4062C58.5493 16.4062 57.5 17.4556 57.5 18.75C57.5 20.0444 58.5493 21.0938 59.8438 21.0938Z" fill="url(#paint3_linear_332_4728)"/>
<path d="M18.9062 51.875H7.03125V56.5625H18.9062V51.875Z" fill="url(#paint4_linear_332_4728)"/>
<path d="M18.9062 59.6875H7.03125V64.375H18.9062V59.6875Z" fill="url(#paint5_linear_332_4728)"/>
<path d="M18.9062 67.5H7.03125V72.1875H18.9062V67.5Z" fill="url(#paint6_linear_332_4728)"/>
<defs>
<linearGradient id="paint0_linear_332_4728" x1="95.9431" y1="39.9153" x2="15.9431" y2="39.9153" gradientUnits="userSpaceOnUse">
<stop offset="0.25" stop-color="#00BF9F"/>
<stop offset="1" stop-color="#364BCC"/>
</linearGradient>
<linearGradient id="paint1_linear_332_4728" x1="72.6529" y1="39.995" x2="67.9654" y2="39.995" gradientUnits="userSpaceOnUse">
<stop offset="0.25" stop-color="#00BF9F"/>
<stop offset="1" stop-color="#364BCC"/>
</linearGradient>
<linearGradient id="paint2_linear_332_4728" x1="70.3092" y1="28.745" x2="65.6217" y2="28.745" gradientUnits="userSpaceOnUse">
<stop offset="0.25" stop-color="#00BF9F"/>
<stop offset="1" stop-color="#364BCC"/>
</linearGradient>
<linearGradient id="paint3_linear_332_4728" x1="63.1217" y1="18.745" x2="58.4342" y2="18.745" gradientUnits="userSpaceOnUse">
<stop offset="0.25" stop-color="#00BF9F"/>
<stop offset="1" stop-color="#364BCC"/>
</linearGradient>
<linearGradient id="paint4_linear_332_4728" x1="21.2728" y1="54.2138" x2="9.3978" y2="54.2138" gradientUnits="userSpaceOnUse">
<stop offset="0.25" stop-color="#00BF9F"/>
<stop offset="1" stop-color="#364BCC"/>
</linearGradient>
<linearGradient id="paint5_linear_332_4728" x1="21.2728" y1="62.0263" x2="9.3978" y2="62.0263" gradientUnits="userSpaceOnUse">
<stop offset="0.25" stop-color="#00BF9F"/>
<stop offset="1" stop-color="#364BCC"/>
</linearGradient>
<linearGradient id="paint6_linear_332_4728" x1="21.2728" y1="69.8388" x2="9.3978" y2="69.8388" gradientUnits="userSpaceOnUse">
<stop offset="0.25" stop-color="#00BF9F"/>
<stop offset="1" stop-color="#364BCC"/>
</linearGradient>
</defs>
</svg>
