<svg width="80" height="80" viewBox="0 0 80 80" fill="none" xmlns="http://www.w3.org/2000/svg">
<path d="M72.1875 19.2188H68.9062V11.0938H50.9375V10.9375C50.9375 4.90656 46.0311 0 40 0C33.9691 0 29.0625 4.90656 29.0625 10.9375V11.0938H11.0938V19.2188H7.8125C3.50469 19.2188 0 22.7234 0 27.0312C0 31.3391 3.50469 34.8438 7.8125 34.8438H11.0938V65.7812H22.0312V72.1875C22.0312 76.4953 25.5359 80 29.8438 80C34.1516 80 37.6562 76.4953 37.6562 72.1875V65.7812H42.3438V72.1875C42.3438 76.4953 45.8484 80 50.1562 80C54.4641 80 57.9688 76.4953 57.9688 72.1875V65.7812H68.9062V34.8438H72.1875C76.4953 34.8438 80 31.3391 80 27.0312C80 22.7234 76.4953 19.2188 72.1875 19.2188ZM11.0938 30.1562H7.8125C6.08938 30.1562 4.6875 28.7544 4.6875 27.0312C4.6875 25.3081 6.08938 23.9062 7.8125 23.9062H11.0938V30.1562ZM33.75 10.9375C33.75 7.49125 36.5537 4.6875 40 4.6875C43.4463 4.6875 46.25 7.49125 46.25 10.9375V11.0938H45.9375H34.0625H33.75V10.9375ZM41.25 15.7812V18.7734L40 18.2116L38.75 18.7734V15.7812H41.25ZM15.7812 15.7812H34.0625V20.8802L25.5912 24.6875H15.7812V15.7812ZM15.7812 61.0938V29.375H26.5963L37.6562 24.4042V25C37.6562 28.6186 34.7123 31.5625 31.0938 31.5625H27.6562V36.25H31.0938C33.4719 36.25 35.6786 35.5062 37.4975 34.242C36.8431 37.1752 34.2212 39.375 31.0938 39.375H27.6562V44.0625H31.0938C33.5417 44.0625 35.8077 43.2742 37.6562 41.9416V50.1562H27.5V61.0938H15.7812ZM32.9688 72.1875C32.9688 73.9106 31.5669 75.3125 29.8438 75.3125C28.1206 75.3125 26.7188 73.9106 26.7188 72.1875V65.7812H32.9688V72.1875ZM32.1875 61.0938V54.8438H47.8125V61.0938H32.1875ZM53.2812 72.1875C53.2812 73.9106 51.8794 75.3125 50.1562 75.3125C48.4331 75.3125 47.0312 73.9106 47.0312 72.1875V65.7812H53.2812V72.1875ZM64.2188 61.0938H52.5V50.1562H42.3438V41.9416C44.1923 43.2742 46.4583 44.0625 48.9062 44.0625H52.3438V39.375H48.9062C45.7786 39.375 43.1569 37.1752 42.5025 34.242C44.3214 35.5062 46.5281 36.25 48.9062 36.25H52.3438V31.5625H48.9062C45.2877 31.5625 42.3438 28.6186 42.3438 25V24.4042L53.4037 29.375H64.2188V61.0938ZM64.2188 24.6875H54.4088L45.9375 20.8802V15.7812H64.2188V24.6875ZM72.1875 30.1562H68.9062V23.9062H72.1875C73.9106 23.9062 75.3125 25.3081 75.3125 27.0312C75.3125 28.7544 73.9106 30.1562 72.1875 30.1562Z" fill="url(#paint0_linear_333_5271)"/>
<defs>
<linearGradient id="paint0_linear_333_5271" x1="95.9431" y1="39.9153" x2="15.9431" y2="39.9153" gradientUnits="userSpaceOnUse">
<stop offset="0.25" stop-color="#00BF9F"/>
<stop offset="1" stop-color="#364BCC"/>
</linearGradient>
</defs>
</svg>
