<svg width="80" height="62" viewBox="0 0 80 62" fill="none" xmlns="http://www.w3.org/2000/svg">
<path d="M72.8125 19.9844V16.0781H70.8808C70.9175 15.8228 70.9375 15.5622 70.9375 15.2969V6.23438C70.9375 3.21891 68.4842 0.765625 65.4688 0.765625H56.4062C53.3908 0.765625 50.9375 3.21891 50.9375 6.23438V8.26562H16.5625C13.1163 8.26562 10.3125 11.0694 10.3125 14.5156C10.3125 15.055 10.3812 15.5786 10.5103 16.0781H7.1875V19.9844H0V24.6719H7.1875V28.5781H17.4839L35.6727 40.2969L20.0881 50.3378C18.8289 48.4322 16.6688 47.1719 14.2188 47.1719C10.3417 47.1719 7.1875 50.3261 7.1875 54.2031C7.1875 58.0802 10.3417 61.2344 14.2188 61.2344C17.753 61.2344 20.6853 58.613 21.1764 55.2127L40 43.085L58.8236 55.2127C59.3147 58.613 62.247 61.2344 65.7812 61.2344C69.6583 61.2344 72.8125 58.0802 72.8125 54.2031C72.8125 50.3261 69.6583 47.1719 65.7812 47.1719C63.3312 47.1719 61.1711 48.4322 59.9119 50.3378L44.3273 40.2969L62.5161 28.5781H72.8125V24.6719H80V19.9844H72.8125ZM14.2188 56.5469C12.9264 56.5469 11.875 55.4955 11.875 54.2031C11.875 52.9108 12.9264 51.8594 14.2188 51.8594C15.5111 51.8594 16.5625 52.9108 16.5625 54.2031C16.5625 55.4955 15.5111 56.5469 14.2188 56.5469ZM65.7812 51.8594C67.0736 51.8594 68.125 52.9108 68.125 54.2031C68.125 55.4955 67.0736 56.5469 65.7812 56.5469C64.4889 56.5469 63.4375 55.4955 63.4375 54.2031C63.4375 52.9108 64.4889 51.8594 65.7812 51.8594ZM55.625 6.23438C55.625 5.80359 55.9755 5.45312 56.4062 5.45312H65.4688C65.8995 5.45312 66.25 5.80359 66.25 6.23438V15.2969C66.25 15.7277 65.8995 16.0781 65.4688 16.0781H56.4062C55.9755 16.0781 55.625 15.7277 55.625 15.2969V6.23438ZM16.5625 12.9531H50.9375V16.0781H16.5625C15.7009 16.0781 15 15.3772 15 14.5156C15 13.6541 15.7009 12.9531 16.5625 12.9531ZM40 37.5088L26.1386 28.5781H53.8614L40 37.5088ZM68.125 23.8906H11.875V20.7656H68.125V23.8906Z" fill="url(#paint0_linear_333_5347)"/>
<defs>
<linearGradient id="paint0_linear_333_5347" x1="95.9431" y1="30.9359" x2="15.9431" y2="30.9359" gradientUnits="userSpaceOnUse">
<stop offset="0.25" stop-color="#00BF9F"/>
<stop offset="1" stop-color="#364BCC"/>
</linearGradient>
</defs>
</svg>
