<svg width="80" height="80" viewBox="0 0 80 80" fill="none" xmlns="http://www.w3.org/2000/svg">
<path d="M0 0V80H80V0H0ZM47.1875 75.3125H4.6875V4.6875H47.1875V75.3125ZM75.3125 75.3125H51.875V4.6875H75.3125V75.3125Z" fill="url(#paint0_linear_333_5256)"/>
<path d="M58.7208 32.5936L55.4062 35.9083C57.6445 38.1468 57.6445 41.7888 55.4062 44.0272L58.7208 47.3416C62.7867 43.2757 62.7867 36.6597 58.7208 32.5936Z" fill="url(#paint1_linear_333_5256)"/>
<path d="M7.8125 7.8125V72.1875H44.0625V7.8125H7.8125ZM20.3603 67.5L21.875 65.2678L23.3897 67.5H20.3603ZM39.375 67.5H29.0544L24.2188 60.3736V53.9062H19.5312V60.3736L14.6956 67.5H12.5V52.3438H22.5H36.5625H39.375V67.5ZM27.1875 47.6562V41.4062H31.875V47.6562H27.1875ZM39.375 47.6562H36.5625V36.7188H22.5V47.6562H12.5V32.3438H39.375V47.6562ZM24.44 21.9664C25.2798 22.5525 25.7812 23.5114 25.7812 24.5312C25.7812 26.2544 24.3794 27.6562 22.6562 27.6562C20.9331 27.6562 19.5312 26.2544 19.5312 24.5312C19.5312 23.5114 20.0327 22.5525 20.8725 21.9664L21.875 21.2669V19.2188H23.4375V21.2669L24.44 21.9664ZM39.375 27.6562H29.8145C30.2342 26.6986 30.4688 25.642 30.4688 24.5312C30.4688 22.4184 29.6105 20.4117 28.125 18.9542V14.5312H17.1875V18.9542C15.702 20.4117 14.8438 22.4184 14.8438 24.5312C14.8438 25.642 15.0783 26.6986 15.498 27.6562H12.5V12.5H39.375V27.6562Z" fill="url(#paint2_linear_333_5256)"/>
<defs>
<linearGradient id="paint0_linear_333_5256" x1="95.9431" y1="39.9153" x2="15.9431" y2="39.9153" gradientUnits="userSpaceOnUse">
<stop offset="0.25" stop-color="#00BF9F"/>
<stop offset="1" stop-color="#364BCC"/>
</linearGradient>
<linearGradient id="paint1_linear_333_5256" x1="63.0385" y1="39.952" x2="56.6745" y2="39.952" gradientUnits="userSpaceOnUse">
<stop offset="0.25" stop-color="#00BF9F"/>
<stop offset="1" stop-color="#364BCC"/>
</linearGradient>
<linearGradient id="paint2_linear_333_5256" x1="51.2867" y1="39.9318" x2="15.0367" y2="39.9318" gradientUnits="userSpaceOnUse">
<stop offset="0.25" stop-color="#00BF9F"/>
<stop offset="1" stop-color="#364BCC"/>
</linearGradient>
</defs>
</svg>

