<svg width="54" height="18" viewBox="0 0 54 18" fill="none" xmlns="http://www.w3.org/2000/svg">
<path d="M8.97632 14.089L8.1898 14.8755L6.0662 12.7519L3.86396 14.9542L5.98755 17.0778L5.20103 17.8643L0.481934 13.0665L1.26845 12.28L3.23474 14.2463L5.43699 12.0441L3.4707 10.0778L4.25722 9.29126L8.97632 14.089Z" fill="white"/>
<path d="M14.325 10.6282L12.8306 9.36976L10.6284 10.7068L11.0216 12.6731L9.99915 13.3023L8.74072 6.2237L9.7632 5.59448L15.3475 10.1563L14.325 10.6282ZM12.1227 8.74055L10.6284 7.48212C10.5497 7.40347 10.3924 7.24617 10.1565 7.08886C9.9205 6.93156 9.84185 6.77426 9.68454 6.69561C9.84185 7.08886 9.9205 7.48212 9.99915 7.95403L10.3924 9.76302L12.1227 8.74055Z" fill="white"/>
<path d="M20.4598 6.381C20.8531 7.63942 20.2239 8.58324 18.5722 9.05515L16.6846 9.60571L14.7183 3.15628L18.6508 1.9765L18.9655 2.84167L16.0553 3.70684L16.6059 5.43718L17.3924 5.20122C18.9655 4.72931 20.0666 5.12257 20.4598 6.381ZM17.4711 8.42594L18.2576 8.18998C18.7295 8.03268 19.1228 7.87538 19.2801 7.56077C19.4374 7.32482 19.516 7.01021 19.3587 6.61695C19.2801 6.22369 19.0441 6.06639 18.7295 5.98774C18.4149 5.90909 18.0216 5.98774 17.3924 6.14504L16.7632 6.30234L17.4711 8.42594Z" fill="white"/>
<path d="M28.5608 4.25753C28.6394 5.35865 28.4035 6.22382 27.8529 6.85304C27.3024 7.48225 26.5945 7.79686 25.572 7.87551C24.5496 7.95416 23.763 7.63955 23.2125 7.08899C22.6619 6.53843 22.3473 5.67326 22.2687 4.57214C22.19 3.47101 22.426 2.60585 22.9765 1.97663C23.5271 1.34742 24.2349 1.03281 25.2574 0.95416C26.2799 0.875508 27.0664 1.19011 27.617 1.74068C28.1675 2.36989 28.4821 3.15641 28.5608 4.25753ZM23.3698 4.57214C23.4484 5.43731 23.6057 5.98787 23.999 6.45978C24.3922 6.93169 24.8642 7.08899 25.4934 7.01034C26.1226 7.01034 26.5945 6.77438 26.9091 6.30247C27.2237 5.83056 27.381 5.20135 27.3024 4.41483C27.2237 3.62832 27.0664 2.9991 26.7518 2.52719C26.4372 2.13393 25.8866 1.89798 25.2574 1.97663C24.6282 1.97663 24.0776 2.21259 23.763 2.6845C23.5271 3.07775 23.3698 3.70697 23.3698 4.57214Z" fill="white"/>
<path d="M35.8757 4.17887C35.7184 4.88674 35.4037 5.35865 34.8532 5.5946C34.3026 5.90921 33.6734 5.90921 32.8082 5.75191L32.1004 5.67325L31.6285 8.11146L30.5273 7.95415L31.8644 1.34741L33.7521 1.74067C34.5386 1.89797 35.1678 2.21258 35.4824 2.60584C35.8757 2.9991 35.9543 3.54966 35.8757 4.17887ZM32.3363 4.80809L32.8869 4.88674C33.4375 4.96539 33.8307 4.96539 34.1453 4.80809C34.4599 4.65078 34.6172 4.41483 34.6959 4.02157C34.7745 3.62831 34.6959 3.3137 34.5386 3.07775C34.3813 2.84179 33.988 2.68449 33.5161 2.60584L32.7296 2.44854L32.3363 4.80809Z" fill="white"/>
<path d="M43.2684 4.96533L44.1335 5.51589L42.1672 8.42601C41.9313 8.74061 41.774 9.05522 41.538 9.36983C41.3021 9.68443 41.1448 9.84174 41.0661 9.99904L46.8863 7.32488L47.9875 8.03275L44.3695 13.6957L43.583 13.1451L45.4706 10.235C45.7852 9.76308 46.0998 9.29117 46.5717 8.66196L40.7515 11.3361L39.6504 10.6283L43.2684 4.96533Z" fill="white"/>
<path d="M52.7074 14.7968C52.3928 15.1114 51.9995 15.2687 51.6063 15.19C51.213 15.1114 50.8198 15.0327 50.4265 14.6395C50.7411 15.1114 50.9771 15.5833 50.9771 15.9766C50.9771 16.3698 50.8198 16.7631 50.5052 17.0777C50.0332 17.4709 49.5613 17.6282 48.9321 17.5496C48.3029 17.4709 47.7523 17.0777 47.1231 16.4485C46.4939 15.8193 46.1007 15.19 45.9434 14.6395L46.6512 14.0103C46.7299 14.3249 46.8872 14.6395 47.1231 14.9541C47.3591 15.2687 47.5164 15.5833 47.7524 15.7406C48.5389 16.6058 49.2467 16.7631 49.7973 16.2125C50.0332 15.9766 50.1119 15.662 50.0333 15.2687C49.9546 14.8754 49.64 14.4035 49.1681 13.9316L48.6175 13.3024L49.2467 12.6732L49.7973 13.2238C50.7411 14.1676 51.449 14.4822 51.9209 13.9316C52.1568 13.7743 52.2355 13.4597 52.1568 13.2238C52.0782 12.9878 51.9995 12.6732 51.6849 12.3586C51.449 12.1226 51.213 11.8867 50.9771 11.7294C50.7411 11.5721 50.4265 11.4148 50.0333 11.3361L50.2692 10.4709C51.0557 10.6283 51.8422 11.1002 52.4715 11.7294C52.9434 12.2799 53.258 12.7518 53.258 13.3024C53.258 13.853 53.1007 14.4822 52.7074 14.7968Z" fill="white"/>
</svg>
